<?xml version="1.0" encoding="UTF-8"?>
<svg xmlns="http://www.w3.org/2000/svg" width="150.5" height="34.241" viewBox="0 0 150.5 34.241"><g id="logo" transform="translate(-137.5 -33.981)"><path id="Union_9" data-name="Union 9" d="M5.783,11.039h9.462v8.937c-.591,6.111-5.552,10.579-9.462,12.616ZM0,11.039V0H15.245V11.039Z" transform="translate(155.873 34.805)" fill="#20c58a" stroke="rgba(0,0,0,0)" stroke-width="1"/><path id="Union_10" data-name="Union 10" d="M0,32.592V12.616C.591,6.505,5.552,2.037,9.462,0V21.553h5.783V32.592Z" transform="translate(138 34.805)" stroke="rgba(0,0,0,0)" stroke-width="1"/><g id="Group_18556" data-name="Group 18556" transform="translate(182.377 34.805)"><path id="Path_39706" data-name="Path 39706" d="M-259.276,71.9v28.632h-5.306V71.9Zm13.876,7.608q9.571,0,9.571,9.772a18.879,18.879,0,0,1-.18,2.6h-13.956q0,4.445,6.528,4.445a34.252,34.252,0,0,0,6.371-.6v4.2a32.625,32.625,0,0,1-6.771.6q-11.433,0-11.433-10.753Q-255.271,79.508-245.4,79.508Zm-4.565,8.69h8.97v-.16q0-4.365-4.405-4.365Q-249.6,83.673-249.965,88.2Zm18.121,12.335V79.508h4.1l.659,3.084a9.4,9.4,0,0,1,6.888-3.084q7.469,0,7.469,7.769v13.256h-5.3V87.278q0-3.484-3.464-3.484a7.821,7.821,0,0,0-5.046,2.062v14.676ZM-194.4,84.994a7.347,7.347,0,0,0-4.125-1.085q-4.946,0-4.946,5.546,0,6.591,5.146,6.591a12.985,12.985,0,0,0,3.924-.581Zm5.306,14.28a37.186,37.186,0,0,1-9.431,1.259q-10.192,0-10.192-10.933,0-10.091,9.972-10.092a10.533,10.533,0,0,1,4.345,1V71.9h5.3Zm4.906-19.763h16.219v4.2L-178.722,96.53h10.349v4h-16.216v-4l10.911-12.815H-184.19Zm25.229,0v21.023h-5.306V79.508Z" transform="translate(264.582 -71.168)"/><rect id="Rectangle_2706" data-name="Rectangle 2706" width="5.306" height="4.937" transform="translate(100.317)" fill="#51b848"/></g></g></svg>