<svg xmlns="http://www.w3.org/2000/svg" width="127" height="26" viewBox="0 0 127 26" fill="none">
  <mask id="mask0_2_31865" style="mask-type:luminance" maskUnits="userSpaceOnUse" x="0" y="0" width="127" height="26">
    <path d="M127 0.796387H0V25.2039H127V0.796387Z" fill="white"/>
  </mask>
  <g mask="url(#mask0_2_31865)">
    <path d="M10.5832 1.41134L0.0489981 24.0007C-0.108738 24.3374 0.137458 24.7233 0.509417 24.7233H12.07C12.4835 24.7233 12.8587 24.4835 13.0335 24.1083L23.5677 1.51899C23.7254 1.1822 23.4792 0.796387 23.1072 0.796387H11.5467C11.1332 0.796387 10.758 1.03619 10.5832 1.41134Z" fill="#192526"/>
    <path d="M31.4972 14.684C30.7746 14.5657 30.0327 14.5039 29.278 14.5039C23.0977 14.5039 17.87 18.5837 16.1391 24.1972C16.0528 24.4765 16.2638 24.76 16.5559 24.76H27.1317C27.3352 24.76 27.5186 24.6417 27.6039 24.4583L31.8231 15.2979L31.8211 15.2958C31.9405 15.0357 31.7794 14.7309 31.496 14.684H31.4972Z" fill="#192526"/>
    <path d="M40.6106 0.796387H44.1585V24.7766H40.6106V0.796387Z" fill="#192526"/>
    <path d="M55.4934 21.9535C57.4639 21.9535 58.9422 21.0667 59.7309 19.9167L62.6542 21.6252C61.1431 23.8591 58.6788 25.2062 55.4601 25.2062C50.0398 25.2062 46.5247 21.4941 46.5247 16.567C46.5247 11.6399 50.0398 7.92773 55.197 7.92773C60.3545 7.92773 63.4418 11.8701 63.4418 16.6C63.4418 17.0924 63.3758 17.6189 63.3108 18.0783H50.2369C50.7954 20.6404 52.865 21.9545 55.4934 21.9545V21.9535ZM59.8619 15.1868C59.3694 12.3614 57.2998 11.1464 55.164 11.1464C52.5028 11.1464 50.6961 12.7238 50.2038 15.1868H59.8619Z" fill="#192526"/>
    <path d="M80.7757 14.692V24.7765H77.2279V15.0533C77.2279 12.5573 75.7826 11.2432 73.5487 11.2432C71.3147 11.2432 69.3772 12.6223 69.3772 15.9731V24.7765H65.8291V8.3517H69.0841L69.3772 10.7092C70.461 9.00074 72.2345 7.92432 74.4684 7.92432C78.1476 7.92432 80.7757 10.4214 80.7757 14.691V14.692Z" fill="#192526"/>
    <path d="M100.462 0.796387V24.7766H97.03L96.9149 22.4116C95.667 24.1531 93.7282 25.2039 91.1661 25.2039C86.6983 25.2039 82.9863 21.4257 82.9863 16.5647C82.9863 11.7036 86.6983 7.92543 91.1661 7.92543C93.7282 7.92543 95.667 8.97628 96.9149 10.6847V0.796387H100.463H100.462ZM96.9139 16.5647C96.9139 13.5101 94.68 11.3082 91.7234 11.3082C88.7671 11.3082 86.5332 13.5091 86.5332 16.5647C86.5332 19.6203 88.7671 21.8211 91.7234 21.8211C94.68 21.8211 96.9139 19.6203 96.9139 16.5647Z" fill="#192526"/>
    <path d="M103.367 3.62142C103.367 2.37338 104.385 1.35449 105.634 1.35449C106.883 1.35449 107.901 2.37338 107.901 3.62142C107.901 4.86945 106.882 5.88834 105.634 5.88834C104.386 5.88834 103.367 4.83747 103.367 3.62142ZM103.859 8.35245H107.408V24.7773H103.859V8.35138V8.35245Z" fill="#192526"/>
    <path d="M109.655 16.5655C109.655 11.6714 113.532 7.92627 118.328 7.92627C123.124 7.92627 127 11.6714 127 16.5655C127 21.4596 123.157 25.2048 118.328 25.2048C113.499 25.2048 109.655 21.4266 109.655 16.5655ZM123.452 16.5655C123.452 13.576 121.218 11.3751 118.328 11.3751C115.437 11.3751 113.203 13.576 113.203 16.5655C113.203 19.555 115.437 21.7559 118.328 21.7559C121.218 21.7559 123.452 19.555 123.452 16.5655Z" fill="#192526"/>
  </g>
</svg>