<svg width="188" height="24" viewBox="0 0 188 24" fill="none" xmlns="http://www.w3.org/2000/svg">
<g clip-path="url(#clip0_4763_91360)">
<path d="M35.6173 8.46104L30.0713 21.5913H33.5251L34.3885 19.3395H39.9346L40.8146 21.5913H44.2518L38.656 8.46104H35.6173ZM35.4679 16.5743L37.1283 12.2528L38.7888 16.5743H35.4679ZM51.2425 21.1112V21.7072H54.3476V8.08022H51.2425V12.9316C50.4746 12.4584 49.588 12.2115 48.6853 12.2196C48.0603 12.2282 47.4432 12.3605 46.87 12.609C46.2967 12.8575 45.7787 13.2171 45.3461 13.667C44.9135 14.1168 44.5748 14.648 44.3499 15.2295C44.125 15.8111 44.0183 16.4314 44.036 17.0545C44.0161 17.6797 44.121 18.3026 44.3447 18.887C44.5684 19.4714 44.9064 20.0057 45.3391 20.4587C45.7717 20.9116 46.2903 21.2743 46.8648 21.5256C47.4393 21.7769 48.0581 21.9118 48.6853 21.9225C49.5865 21.9364 50.4732 21.6953 51.2425 21.227V21.1112ZM49.2997 14.7529C49.6705 14.7438 50.0385 14.8197 50.3754 14.9747C50.7122 15.1297 51.0088 15.3598 51.2425 15.6471V18.3957C51.0072 18.6789 50.7093 18.9039 50.3723 19.0533C50.0353 19.2027 49.6682 19.2723 49.2997 19.2566C49.001 19.2548 48.7058 19.1926 48.432 19.0738C48.1581 18.9549 47.9113 18.7819 47.7064 18.5652C47.5015 18.3486 47.3428 18.0927 47.2399 17.8131C47.1371 17.5335 47.0921 17.236 47.1078 16.9386C47.0967 16.6431 47.145 16.3484 47.2498 16.0717C47.3545 15.7951 47.5137 15.5421 47.7179 15.3277C47.9221 15.1133 48.1672 14.9417 48.4389 14.8231C48.7105 14.7045 49.0032 14.6413 49.2997 14.6371V14.7529ZM66.1868 12.2859L62.1352 21.7072H59.1796L55.1446 12.4018H58.4656L60.6906 17.7665L62.9323 12.4018L66.1868 12.2859ZM72.9284 21.0614V21.7072H76.0501V12.4018H72.9284V12.8985C72.1639 12.4175 71.275 12.17 70.3712 12.1865C69.7462 12.1972 69.1295 12.3317 68.557 12.5821C67.9846 12.8326 67.4678 13.194 67.0367 13.6455C66.6056 14.0969 66.2689 14.6293 66.046 15.2117C65.8231 15.7941 65.7186 16.4149 65.7385 17.0379C65.7186 17.661 65.8231 18.2817 66.046 18.8641C66.2689 19.4465 66.6056 19.9789 67.0367 20.4304C67.4678 20.8818 67.9846 21.2432 68.557 21.4937C69.1295 21.7442 69.7462 21.8787 70.3712 21.8893C71.275 21.9058 72.1639 21.6584 72.9284 21.1773V21.0614ZM70.9856 14.7199C71.3549 14.71 71.7217 14.7839 72.0582 14.9359C72.3947 15.0879 72.6923 15.3141 72.9284 15.5974V18.3957C72.6914 18.6769 72.3933 18.9006 72.0567 19.0498C71.7201 19.199 71.3538 19.2698 70.9856 19.2566C70.6884 19.2547 70.3947 19.193 70.122 19.0752C69.8493 18.9574 69.6032 18.7859 69.3986 18.571C69.1939 18.3561 69.0348 18.1022 68.9309 17.8246C68.827 17.5469 68.7804 17.2512 68.7938 16.9552C68.7804 16.6583 68.827 16.3618 68.9307 16.0832C69.0344 15.8046 69.1932 15.5497 69.3977 15.3335C69.6021 15.1173 69.848 14.9442 70.1208 14.8246C70.3935 14.705 70.6876 14.6412 70.9856 14.6371V14.7199ZM83.3562 12.0209C83.9109 12.0063 84.4624 12.1097 84.9738 12.3244C85.4852 12.5391 85.9448 12.86 86.322 13.2659C86.6991 13.6718 86.9852 14.1532 87.1609 14.678C87.3367 15.2028 87.3982 15.759 87.3414 16.3094V21.7072H84.2031V16.8889C84.2031 15.5643 83.5223 14.9351 82.5426 14.9351C82.2164 14.9661 81.9003 15.0646 81.6144 15.2242C81.3285 15.3839 81.0791 15.6012 80.8821 15.8623V21.7072H77.7604V12.4018H80.8821V13.031C81.6034 12.4287 82.5151 12.1002 83.4558 12.1038L83.3562 12.0209ZM98.3172 17.8824C98.1832 19.0441 97.5998 20.1078 96.691 20.8469C95.7823 21.5861 94.6201 21.9422 93.452 21.8396C92.7906 21.8785 92.1284 21.7808 91.5066 21.5527C90.8849 21.3247 90.317 20.9711 89.8385 20.5142C89.3601 20.0573 88.9813 19.5069 88.7259 18.8973C88.4705 18.2878 88.344 17.6323 88.3543 16.9717C88.3487 16.3133 88.4786 15.6607 88.7359 15.0542C88.9931 14.4478 89.3723 13.9003 89.85 13.4457C90.3277 12.9911 90.8938 12.6389 91.5133 12.4109C92.1328 12.183 92.7926 12.0841 93.452 12.1203C94.614 12.0458 95.7598 12.4234 96.6485 13.1737C97.5372 13.924 98.0996 14.9886 98.2175 16.1438H95.2785C95.2127 15.7219 94.9859 15.3416 94.6455 15.0824C94.3051 14.8232 93.8775 14.7052 93.452 14.7529C93.1608 14.7429 92.8708 14.7941 92.6008 14.9031C92.3308 15.0122 92.0868 15.1767 91.8847 15.386C91.6827 15.5953 91.5271 15.8447 91.4281 16.1179C91.329 16.3911 91.2888 16.682 91.3099 16.9717C91.2865 17.2635 91.325 17.5569 91.4228 17.833C91.5205 18.109 91.6755 18.3614 91.8775 18.5738C92.0795 18.7862 92.3241 18.9538 92.5954 19.0657C92.8666 19.1777 93.1585 19.2315 93.452 19.2236C93.88 19.271 94.3098 19.1507 94.6506 18.8881C94.9914 18.6255 95.2165 18.2411 95.2785 17.8161H98.2175L98.3172 17.8824ZM108.762 18.7103H105.673C105.512 18.9305 105.299 19.1078 105.053 19.2262C104.807 19.3446 104.535 19.4006 104.262 19.3891C103.793 19.4238 103.327 19.2937 102.945 19.0214C102.563 18.7492 102.289 18.352 102.169 17.899H108.811C108.844 17.552 108.844 17.2028 108.811 16.8558C108.831 16.229 108.719 15.6049 108.484 15.0231C108.25 14.4414 107.896 13.9145 107.447 13.4757C106.998 13.0369 106.462 12.6958 105.874 12.4739C105.285 12.252 104.657 12.1542 104.029 12.1865C103.374 12.1442 102.717 12.2397 102.101 12.467C101.485 12.6942 100.924 13.0481 100.455 13.5056C99.9849 13.9631 99.6168 14.514 99.3745 15.1226C99.1321 15.7311 99.0208 16.3837 99.0478 17.0379C99.0276 17.6997 99.1467 18.3584 99.3976 18.9715C99.6485 19.5845 100.026 20.1382 100.504 20.597C100.983 21.0557 101.553 21.4092 102.177 21.6346C102.802 21.8601 103.467 21.9525 104.129 21.9059C105.134 21.9939 106.138 21.7296 106.969 21.1583C107.799 20.587 108.404 19.7447 108.679 18.7765L108.762 18.7103ZM103.996 14.5874C104.222 14.5599 104.451 14.5789 104.67 14.6435C104.888 14.708 105.091 14.8167 105.265 14.9626C105.439 15.1086 105.582 15.2888 105.684 15.492C105.785 15.6952 105.844 15.9171 105.856 16.1438H102.037C102.12 15.6925 102.365 15.2864 102.725 15.0004C103.085 14.7145 103.536 14.5678 103.996 14.5874V14.5874ZM120.02 19.3891L120.9 21.641H124.354L118.874 8.46104H115.785L110.223 21.7072H113.677L114.54 19.4554L120.02 19.3891ZM117.247 12.3024L118.907 16.624H115.586L117.247 12.3024ZM136.89 12.0375C137.437 12.037 137.977 12.1509 138.476 12.3718C138.976 12.5928 139.423 12.9158 139.789 13.3201C140.156 13.7243 140.433 14.2008 140.603 14.7186C140.773 15.2364 140.832 15.784 140.776 16.326V21.7072H137.637V16.8889C137.637 15.5643 137.006 14.9351 135.977 14.9351C135.696 14.9428 135.421 15.0156 135.173 15.1478C134.925 15.28 134.711 15.4679 134.549 15.6968C134.565 15.9283 134.565 16.1607 134.549 16.3922V21.7072H131.427V16.8889C131.427 15.5643 130.78 14.9351 129.767 14.9351C129.485 14.9513 129.211 15.035 128.968 15.1791C128.725 15.3232 128.521 15.5235 128.372 15.763V21.7072H125.333V12.4018H128.455V12.9482C129.092 12.3786 129.925 12.0762 130.78 12.1038C131.322 12.0887 131.861 12.1937 132.358 12.4113C132.854 12.6289 133.297 12.9536 133.652 13.3621C134.093 12.941 134.614 12.6125 135.184 12.3963C135.755 12.1801 136.363 12.0807 136.973 12.1038L136.89 12.0375ZM151.453 18.7268H148.381C148.218 18.9495 148.002 19.1282 147.753 19.2467C147.504 19.3653 147.229 19.4199 146.953 19.4057C146.484 19.4403 146.019 19.3102 145.636 19.038C145.254 18.7658 144.98 18.3686 144.861 17.9155H151.502C151.535 17.5685 151.535 17.2193 151.502 16.8723C151.522 16.2455 151.41 15.6215 151.175 15.0397C150.941 14.4579 150.587 13.931 150.138 13.4923C149.689 13.0535 149.153 12.7124 148.565 12.4905C147.976 12.2686 147.348 12.1708 146.72 12.2031C146.065 12.1607 145.408 12.2563 144.792 12.4835C144.176 12.7108 143.615 13.0647 143.146 13.5222C142.676 13.9797 142.308 14.5306 142.066 15.1392C141.823 15.7477 141.712 16.4003 141.739 17.0545C141.721 17.7171 141.842 18.3761 142.095 18.9891C142.348 19.6022 142.726 20.1557 143.207 20.6141C143.687 21.0726 144.258 21.4259 144.883 21.6512C145.508 21.8765 146.173 21.9689 146.837 21.9225C147.839 22.0097 148.842 21.7448 149.669 21.1733C150.497 20.6019 151.099 19.7599 151.37 18.793L151.453 18.7268ZM146.687 14.6039C146.913 14.5764 147.142 14.5955 147.361 14.66C147.579 14.7246 147.782 14.8333 147.956 14.9792C148.131 15.1252 148.273 15.3054 148.375 15.5086C148.476 15.7118 148.535 15.9336 148.547 16.1604H144.728C144.811 15.709 145.056 15.303 145.416 15.017C145.776 14.731 146.227 14.5843 146.687 14.6039ZM155.737 21.7238H152.615V12.4184H155.737V13.4118C156.622 12.6408 157.767 12.2325 158.941 12.2693V15.0841C158.355 15.0595 157.769 15.1522 157.218 15.357C156.668 15.5617 156.164 15.8743 155.737 16.2763V21.7238ZM159.905 9.20613C159.904 8.96997 159.952 8.7362 160.045 8.51882C160.137 8.30145 160.273 8.10493 160.443 7.94106C160.614 7.77719 160.816 7.64932 161.037 7.56512C161.258 7.48091 161.494 7.44211 161.731 7.45102C161.967 7.44441 162.202 7.48481 162.422 7.56984C162.643 7.65487 162.844 7.78284 163.014 7.94626C163.184 8.10968 163.32 8.30527 163.413 8.5216C163.506 8.73793 163.555 8.97063 163.558 9.20613C163.555 9.44163 163.506 9.67436 163.413 9.89069C163.32 10.107 163.184 10.3026 163.014 10.466C162.844 10.6294 162.643 10.7574 162.422 10.8424C162.202 10.9275 161.967 10.9679 161.731 10.9613C161.494 10.9702 161.258 10.9314 161.037 10.8472C160.816 10.763 160.614 10.6351 160.443 10.4712C160.273 10.3074 160.137 10.1108 160.045 9.89344C159.952 9.67607 159.904 9.4423 159.905 9.20613V9.20613ZM160.187 12.4184H163.309V21.7072H160.187V12.4184ZM174.251 17.899C174.133 19.0541 173.571 20.1187 172.682 20.8691C171.793 21.6194 170.648 21.997 169.486 21.9225C168.824 21.9613 168.162 21.8636 167.54 21.6355C166.918 21.4074 166.351 21.0539 165.872 20.597C165.394 20.1401 165.015 19.5896 164.759 18.9801C164.504 18.3706 164.378 17.715 164.388 17.0545C164.382 16.396 164.512 15.7434 164.769 15.137C165.027 14.5305 165.406 13.9831 165.884 13.5285C166.361 13.0739 166.927 12.7217 167.547 12.4937C168.166 12.2658 168.826 12.1669 169.486 12.2031C170.648 12.1286 171.793 12.5061 172.682 13.2564C173.571 14.0068 174.133 15.0714 174.251 16.2266H171.312C171.246 15.8046 171.019 15.4244 170.679 15.1652C170.339 14.906 169.911 14.788 169.486 14.8358C169.194 14.8257 168.904 14.8769 168.634 14.9859C168.364 15.095 168.12 15.2595 167.918 15.4688C167.716 15.6781 167.561 15.9274 167.462 16.2006C167.363 16.4738 167.322 16.7648 167.343 17.0545C167.32 17.3463 167.359 17.6398 167.456 17.9158C167.554 18.1918 167.709 18.4442 167.911 18.6566C168.113 18.8689 168.358 19.0366 168.629 19.1485C168.9 19.2605 169.192 19.3142 169.486 19.3063C169.914 19.3537 170.343 19.2335 170.684 18.9709C171.025 18.7083 171.25 18.3239 171.312 17.899H174.251ZM182.288 21.2105V21.7072H185.41V12.4018H182.288V12.8985C181.525 12.4129 180.635 12.1651 179.731 12.1865C179.106 12.1972 178.489 12.3317 177.917 12.5821C177.344 12.8326 176.827 13.194 176.396 13.6455C175.965 14.0969 175.628 14.6293 175.405 15.2117C175.183 15.7941 175.078 16.4149 175.098 17.0379C175.087 17.661 175.2 18.2801 175.431 18.8591C175.662 19.4381 176.006 19.9655 176.444 20.4108C176.881 20.856 177.403 21.2102 177.978 21.4526C178.554 21.6951 179.172 21.821 179.797 21.8231C180.702 21.8446 181.592 21.5967 182.354 21.1112L182.288 21.2105ZM180.411 14.6536C180.781 14.6437 181.148 14.7176 181.484 14.8696C181.821 15.0216 182.118 15.2478 182.354 15.5312V18.3957C182.117 18.6769 181.819 18.9006 181.483 19.0498C181.146 19.199 180.78 19.2698 180.411 19.2566C180.114 19.2547 179.821 19.193 179.548 19.0752C179.275 18.9574 179.029 18.7859 178.824 18.571C178.62 18.3561 178.461 18.1022 178.357 17.8246C178.253 17.5469 178.206 17.2512 178.22 16.9552C178.206 16.6583 178.253 16.3618 178.357 16.0832C178.46 15.8046 178.619 15.5497 178.824 15.3335C179.028 15.1173 179.274 14.9442 179.547 14.8246C179.819 14.705 180.114 14.6412 180.411 14.6371V14.6536ZM188 20.7966C188.002 20.6843 187.982 20.5727 187.94 20.4683C187.899 20.3639 187.837 20.2689 187.758 20.1887C187.679 20.1085 187.585 20.0448 187.481 20.0014C187.377 19.9579 187.266 19.9355 187.153 19.9355C186.924 19.9355 186.704 20.0262 186.542 20.1877C186.381 20.3492 186.29 20.5682 186.29 20.7966C186.29 20.9089 186.312 21.02 186.356 21.1235C186.399 21.2271 186.463 21.3209 186.543 21.3996C186.624 21.4782 186.719 21.54 186.824 21.5815C186.929 21.6229 187.04 21.6432 187.153 21.641C187.378 21.641 187.593 21.552 187.752 21.3937C187.911 21.2353 188 21.0205 188 20.7966V20.7966ZM187.153 21.4423C187.067 21.4446 186.982 21.4294 186.903 21.3978C186.823 21.3661 186.751 21.3186 186.69 21.2582C186.629 21.1978 186.582 21.1257 186.55 21.0463C186.518 20.9669 186.503 20.882 186.505 20.7966C186.501 20.7098 186.514 20.623 186.545 20.5416C186.576 20.4603 186.623 20.3862 186.684 20.3239C186.745 20.2617 186.818 20.2127 186.898 20.1801C186.979 20.1474 187.066 20.1318 187.153 20.1342C187.24 20.1342 187.325 20.1515 187.405 20.1849C187.484 20.2184 187.557 20.2675 187.617 20.3292C187.677 20.3909 187.725 20.464 187.756 20.5443C187.788 20.6246 187.803 20.7104 187.801 20.7966C187.803 20.882 187.788 20.9669 187.756 21.0463C187.724 21.1257 187.677 21.1978 187.616 21.2582C187.555 21.3186 187.483 21.3661 187.404 21.3978C187.324 21.4294 187.239 21.4446 187.153 21.4423V21.4423ZM187.585 20.6144C187.585 20.366 187.452 20.3329 187.236 20.3329H186.804V21.227H187.004V20.8462H187.153L187.352 21.227H187.552L187.352 20.8462C187.383 20.8487 187.415 20.8444 187.444 20.8336C187.473 20.8229 187.5 20.8059 187.522 20.7839C187.544 20.7618 187.561 20.7353 187.572 20.706C187.583 20.6767 187.587 20.6455 187.585 20.6144V20.6144ZM187.253 20.7137H187.004V20.4985H187.203L187.402 20.5813L187.253 20.7137" fill="#0E406A"/>
<path d="M14.2195 15.7164C13.5587 15.1005 13.1248 14.2817 12.9873 13.3911C9.53593 14.8676 5.60573 17.7277 1.30762 22.9653L0.752849 23.7965V23.9535L0.857961 24H0.910518H0.945555C2.0084 23.4768 6.67442 21.0935 10.7798 20.5122L11.1419 20.0006L13.6296 16.5128L14.2195 15.7164ZM13.2325 11.1705L13.8866 10.2811C15.1538 8.5372 17.5657 7.41527 19.1016 6.90372L17.7993 0.108226C17.7939 0.0834503 17.7817 0.0606153 17.7642 0.0421793C17.7468 0.0237432 17.7245 0.0104031 17.7 0.00359006C17.6741 -0.00251745 17.6469 -0.000803715 17.6219 0.00851294C17.597 0.0178296 17.5754 0.0343257 17.5598 0.0559057L11.3054 8.99643H0.127984C0.100422 8.99752 0.0738622 9.00704 0.051921 9.02368C0.0299798 9.04032 0.0137262 9.06328 0.00535287 9.08944C-0.00251139 9.11696 -0.00169607 9.14622 0.00770534 9.17325C0.0171067 9.20029 0.0346375 9.22379 0.0579091 9.24058L5.997 13.8213C8.25124 12.5639 10.6945 11.6767 13.2325 11.1938V11.1705ZM14.7684 10.9438C16.0597 10.7729 17.3609 10.6875 18.6636 10.688C19.2125 10.688 19.7673 10.688 20.3162 10.7345C22.2603 10.8099 24.1682 11.2808 25.9225 12.1181L28.2 8.69415C26.7225 7.75243 23.9136 7.53153 23.9136 7.53153L24.626 5.50858H20.982L20.398 7.67686C19.3994 7.83963 16.17 9.02549 14.7859 10.9147L14.7684 10.9438ZM24.0304 12.6238C23.1925 12.3344 22.3248 12.1394 21.4433 12.0425C18.9729 11.7871 16.4765 12.0952 14.1436 12.9435C14.2136 15.0885 16.7306 16.1756 18.6169 16.3442C20.7776 16.5302 22.0915 16.6697 21.8813 17.4254C21.7587 17.8788 21.4725 18.4136 19.2592 18.4136C17.6471 18.3154 16.0708 17.8984 14.6224 17.1871L12.1405 20.6749C14.1494 21.8375 17.2562 22.0526 17.2562 22.0526L16.7131 23.9826H20.3513L20.7659 22.0759C25.7239 21.4364 27.0554 18.7392 27.4467 17.5765C27.7211 16.7511 28.2 14.2805 24.0245 12.647" fill="#FFC429"/>
</g>
<defs>
<clipPath id="clip0_4763_91360">
<rect width="188" height="24" fill="white"/>
</clipPath>
</defs>
</svg>
