<svg id="Logo_H" data-name="Logo H" xmlns="http://www.w3.org/2000/svg" xmlns:xlink="http://www.w3.org/1999/xlink" width="185.121" height="67.421" viewBox="0 0 185.121 67.421">
  <defs>
    <clipPath id="clip-path">
      <rect id="Rectangle_223" data-name="Rectangle 223" width="185.121" height="67.421" fill="none"/>
    </clipPath>
  </defs>
  <g id="Group_763" data-name="Group 763">
    <g id="Group_276" data-name="Group 276" clip-path="url(#clip-path)">
      <path id="Path_102" data-name="Path 102" d="M36.514,10.991A30.211,30.211,0,0,0,23.128,3.209l.009,13.6.652.515a.209.209,0,0,1,.081.163v1.681l9.176-9.125L27.478,24.066l13.769-5.639L30.892,29.173l14,.007-8.909,4.183h9.375c.009-.306.046-.6.046-.908a30.148,30.148,0,0,0-8.89-21.464" transform="translate(17.49 2.427)" fill="#ef4135"/>
      <path id="Path_103" data-name="Path 103" d="M1.249,32.918c0,.311.037.615.044.922H12.775L2.752,29.659l15.6-.009L6.721,18.182l15.047,6.361L15.409,9.5,26.875,21.132l-.43-17.174,4.361,10.8,1.082-.576V2.59c-.1,0-.191-.012-.29-.012A30.355,30.355,0,0,0,1.245,32.918Z" transform="translate(0.941 1.95)" fill="#ef4135"/>
      <path id="Path_104" data-name="Path 104" d="M26.854,20.538,15.388,8.9l6.359,15.045L6.7,17.588,18.333,29.056l-15.6.007,10.021,4.183H1.273a30.115,30.115,0,0,0,8.848,20.542A30.662,30.662,0,0,0,15.1,57.8V38.722a.2.2,0,0,1,.144-.195l4.122-1.317c.009-.007.005-.019.014-.025.032-.021.07-.011.107-.012l.04-.014c.011,0,.019.007.032.005l.011,0,.014.005a.232.232,0,0,1,.13.019c.009.009.007.025.016.033l2.476.91V27.875a.211.211,0,0,1,.13-.195L27.676,25.5V15.94a.211.211,0,0,1,.109-.184l3-1.6-4.361-10.8Z" transform="translate(0.963 2.544)" fill="#fd0"/>
      <path id="Path_105" data-name="Path 105" d="M44.574,26.237l-14-.009L40.928,15.484,27.16,21.123,32.727,7.1l-9.178,9.125v4.909l3.158,2.137a.205.205,0,0,1,.091.17V37.955l3.149-.681c.028-.005.044.014.072.018s.035-.014.054-.005l6.2,2.675a.209.209,0,0,1,.128.19V50.719a30.237,30.237,0,0,0,8.644-20.3H35.665Z" transform="translate(17.808 5.37)" fill="#fd0"/>
      <path id="Path_106" data-name="Path 106" d="M20.579.043,20.57.05l.009,0Z" transform="translate(15.555 0.033)" fill="#d2232a"/>
      <path id="Path_107" data-name="Path 107" d="M18.93,2.605v13l.553-.3.005-.009c.023-.011.047.009.072.005a.214.214,0,0,1,.137.005l0,.007h0l1,.724a.215.215,0,0,1,.084.17V27.7h.132l1.412-.82V16.536l-.616-.364a.211.211,0,0,1-.1-.179V.4l-1,.82v9.059a.106.106,0,0,1-.081.1l-.609.128-.021,0a.1.1,0,0,1-.065-.025A.1.1,0,0,1,19.8,10.4V1.887Z" transform="translate(14.315 0.3)" fill="#fff"/>
      <path id="Path_108" data-name="Path 108" d="M17.511,20.523V11.8l.817-.388v8.811a.187.187,0,0,1,.044.005c.025,0,.051-.012.072,0l.012.007.969.564V10.853l.815-.39V21.273l.026.016a.2.2,0,0,1,.1.177V37.6l1.567.525a.212.212,0,0,1,.139.2v19.84c.7-.049,1.387-.118,2.071-.211V20.7L21.5,22.241a.231.231,0,0,1-.209,0,.213.213,0,0,1-.1-.183v-.209l-.005-.009V9.192l-4.638,2.466V20.92Z" transform="translate(12.51 6.952)" fill="#fff"/>
      <path id="Path_109" data-name="Path 109" d="M22.194,53.3V33.008l-1.452.332a.212.212,0,0,1-.256-.2V15.753l-1.807.741v17.19l-.817.184V16.828l-1.883.771V34.3l-.817.169V17.932l-1.733.711V51.964A30.38,30.38,0,0,0,22.194,53.3" transform="translate(10.155 11.913)" fill="#fff"/>
      <path id="Path_110" data-name="Path 110" d="M23.807,25.79V45.2a30.19,30.19,0,0,0,5.783-2.571V24.543Z" transform="translate(18.003 18.56)" fill="#fff"/>
      <path id="Path_111" data-name="Path 111" d="M9.382,24.115v19.18a30.206,30.206,0,0,0,3.867,2.057V22.88Z" transform="translate(7.095 17.303)" fill="#fff"/>
      <path id="Path_112" data-name="Path 112" d="M131.981,37.028l.455-.9h2.074V29.677h-6.721V20.648H116.964v7.193h1.2v1.5l-.576-.186a11.2,11.2,0,0,0-3.235-.379,9.489,9.489,0,0,0-7.222,3.807,7.4,7.4,0,0,0-1.243-1.654A7.944,7.944,0,0,0,93.1,33.168a7.823,7.823,0,0,0-1.524-2.192,7.575,7.575,0,0,0-4.443-2.114V20.648l-10.435-.007a12.383,12.383,0,0,0-1.955-.156,9.62,9.62,0,0,0-7.143,2.74,12.447,12.447,0,0,0-3.021,6.068A32.417,32.417,0,0,0,39.736,3.165L36.441.056a.207.207,0,0,0-.227-.039c-.023.009-.019.04-.037.058a.374.374,0,0,0-.044.005l-.007,0c-.044,0-.088-.016-.123.012L33.242,2.373c-.235-.005-.467-.033-.7-.033A32.538,32.538,0,1,0,64.423,41.412a12.725,12.725,0,0,0,3.244,6.805A9.918,9.918,0,0,0,74.9,50.9a16.824,16.824,0,0,0,1.795-.162H94.932v-2.2a8.659,8.659,0,0,0,6.073,2.366,13.659,13.659,0,0,0,3.075-.353l.112-.026,2-.437c.012,0,.012-4.513.012-4.513a9.3,9.3,0,0,0,1.8,2.548,9.978,9.978,0,0,0,6.963,2.782,13.927,13.927,0,0,0,2.39-.19v.028h17.88V43.54h-1.426Zm-99.44-32.5c.1,0,.191.014.29.014V16.126l-1.084.578-3,1.6a.206.206,0,0,0-.109.183V28.04L23.3,30.225a.207.207,0,0,0-.13.193V40.672l-2.476-.91c-.007-.009-.005-.023-.016-.032a.218.218,0,0,0-.13-.021l-.014-.005-.011,0c-.012,0-.021-.009-.032-.005l-.04.014c-.037,0-.076-.009-.107.012-.009.007-.005.019-.014.026l-4.122,1.317a.2.2,0,0,0-.144.195V60.347a30.57,30.57,0,0,1-4.979-4.016A30.119,30.119,0,0,1,2.236,35.79c-.009-.309-.046-.613-.046-.924h0A30.355,30.355,0,0,1,32.541,4.526M62.85,35.79a30.235,30.235,0,0,1-8.642,20.3V45.519a.209.209,0,0,0-.128-.19l-6.2-2.675c-.019-.009-.039.007-.056.005s-.046-.023-.07-.018l-3.151.681V28.811a.206.206,0,0,0-.091-.172L41.359,26.5V19.914a.206.206,0,0,0-.081-.163l-.652-.516-.009-13.6A30.311,30.311,0,0,1,62.9,34.88c0,.307-.039.6-.047.91ZM34.118,10.7a.1.1,0,0,0,.039.079.1.1,0,0,0,.065.025l.021,0,.609-.128a.106.106,0,0,0,.081-.1V1.516l1-.82v15.6a.211.211,0,0,0,.1.179l.616.364V27.176L35.237,28H35.1V16.514a.215.215,0,0,0-.084-.17l-1-.724h0l0-.007c-.039-.025-.088-.009-.135-.005-.025,0-.049-.016-.072,0l-.005.007-.553.3V2.9l.873-.718ZM47.593,61.192a30.293,30.293,0,0,1-5.783,2.569V44.35L47.593,43.1Zm-13.9-45.05V28.79l.005.009v.209a.213.213,0,0,0,.1.183.231.231,0,0,0,.209,0l2.647-1.538V64.908q-1.025.137-2.071.209V45.277a.208.208,0,0,0-.139-.2l-1.567-.527V28.416a.2.2,0,0,0-.1-.177l-.026-.016V17.415l-.815.388v9.945l-.969-.566-.012-.007c-.021-.011-.047,0-.072,0a.187.187,0,0,0-.044-.005V18.36l-.817.39v8.723l-.968.4V18.607Zm-8.374,13.7V46.382l.817-.17V29.51l1.883-.769V45.781l.817-.184V28.407l1.809-.741V45.05a.207.207,0,0,0,.255.2l1.452-.33V65.21a30.389,30.389,0,0,1-8.765-1.333V30.555ZM20.344,62.653A30.323,30.323,0,0,1,16.477,60.6V41.417l3.867-1.235ZM76.792,48.347l-.277.079a8.578,8.578,0,0,1-2.146.309h-.021a7.634,7.634,0,0,1-5.725-2.088c-1.786-1.821-3.058-5.1-3.058-10.957s1.28-9.138,3.049-10.957a7.428,7.428,0,0,1,5.592-2.086,13.6,13.6,0,0,1,2.318.3l.3.067v4.252h-2.8l-.33-1.651h-.033c-.072,0-.246.053-.474.357a5.009,5.009,0,0,0-.7,1.6,30.609,30.609,0,0,0-.8,8.121c0,4.94.58,7.534,1.287,8.823a2.146,2.146,0,0,0,2.12,1.349,5.905,5.905,0,0,0,1.243-.183l.467-.105Zm.711-5.032-1.117.251-.095.021a3.746,3.746,0,0,1-.678.114l-.076,0c-.218-.274-1.168-1.83-1.168-8.008a36.341,36.341,0,0,1,.432-6.263h2.7ZM92.24,48.572H86.126V35.95a2.541,2.541,0,0,0-.3-1.289c-.177-.3-.362-.4-.55-.4s-.372.1-.555.4a2.6,2.6,0,0,0-.293,1.289V48.572h-6.11V45.7h.811V25.681h-.811V22.808h6.11V31.2l.2-.195.1-.028a1.788,1.788,0,0,1,.548-.042,5.65,5.65,0,0,1,4.494,1.86,8.414,8.414,0,0,1,1.653,5.615V45.7h.811Zm10.388-6.143a8.906,8.906,0,0,1-3.314,1.315,3.527,3.527,0,0,0,.708,1.468,1.805,1.805,0,0,0,1.423.616,6.853,6.853,0,0,0,1.591-.181l.478-.119v2.806l-.3.065a11.775,11.775,0,0,1-2.726.334h-.011a6.447,6.447,0,0,1-4.715-1.9c-1.387-1.431-2.339-3.781-2.338-7.422,0-3.272.906-5.446,2.162-6.791A5.678,5.678,0,0,1,99.7,30.772a6.057,6.057,0,0,1,3.732,1.322,5.738,5.738,0,0,1,2.025,4.663,6.467,6.467,0,0,1-2.826,5.671m14.489,5.985-.279.079a9.735,9.735,0,0,1-2.4.241,8.1,8.1,0,0,1-4.594-1.44c-1.721-1.233-3.177-3.516-3.17-7.459-.007-3.879,1.419-6.154,3.045-7.4a7.194,7.194,0,0,1,4.108-1.5,9.061,9.061,0,0,1,2.573.277l.267.084v4h-2.792l-.263-1.175a1.347,1.347,0,0,0-.142.151,3.342,3.342,0,0,0-.486,1.1,17.387,17.387,0,0,0-.458,4.461,8.99,8.99,0,0,0,1,4.652,2.4,2.4,0,0,0,2.014,1.342,5.549,5.549,0,0,0,1.135-.09l.448-.077Zm.518-5.03s-1.681.279-2.025.283c-.237-.177-.929-1.182-.929-3.832,0-.971-.023-1.754.044-2.374h2.91Zm14.907,5.188h-5.66L125.1,42.13v6.442h-6.11V45.7h.81V25.681h-.81V22.81h6.11V36.951L128.24,31.1h3.3v2.871h-.959L129.138,36.8l2.5,8.9h.9Z" transform="translate(0 0)"/>
      <path id="Path_113" data-name="Path 113" d="M56.787,19.158s-.044-.016-.162.176a3.35,3.35,0,0,0-.309.969,23.38,23.38,0,0,0-.279,4.2c0,.325.033,1.173.063,1.737a1.881,1.881,0,0,0,.518-.58,6.771,6.771,0,0,0,.724-3.521,5.56,5.56,0,0,0-.472-2.919c-.067-.077-.076-.061-.083-.065" transform="translate(42.376 14.488)"/>
      <path id="Path_114" data-name="Path 114" d="M119.58,20.158,118.4,24.289,117.1,20.158h-8.031V15.3h-6.138l-1.117,2.072c0-.058,0-.118,0-.174a5.82,5.82,0,0,0-1.64-4.169,4.747,4.747,0,0,0-3.365-1.419,4.819,4.819,0,0,0-3.066.811v.074l-2-.437a14.94,14.94,0,0,0-2.78-.351,9.622,9.622,0,0,0-7.143,2.741c-2.46,2.527-3.66,6.607-3.66,12.466,0,5.922,1.221,10.017,3.732,12.525a9.918,9.918,0,0,0,7.234,2.68A12.4,12.4,0,0,0,92,41.691v.265h10.465V40.574a8.682,8.682,0,0,0,4.7,1.382c1.187.051,4.554-.272,4.554-.272V34.338l-2.655.379V27.352h1.082l3.4,12.041-2.211,8.133h7.8l5.474-20.174h1.407V20.158ZM96.807,13.771c1.626.009,2.842,1.528,2.845,3.426s-1.221,3.419-2.845,3.428C95.206,20.617,94,19.1,94,17.2s1.21-3.414,2.812-3.426m-5.262,25.8-.276.079a8.626,8.626,0,0,1-2.144.306H89.1a7.635,7.635,0,0,1-5.725-2.085c-1.786-1.818-3.056-5.1-3.056-10.957s1.277-9.138,3.044-10.959a7.44,7.44,0,0,1,5.6-2.085,13.535,13.535,0,0,1,2.316.3l.3.065v4.254h-2.8l-.328-1.653h-.035c-.07,0-.244.053-.472.357a5.119,5.119,0,0,0-.708,1.6,30.9,30.9,0,0,0-.8,8.122c0,4.94.58,7.534,1.289,8.823a2.134,2.134,0,0,0,2.116,1.347,5.888,5.888,0,0,0,1.245-.183l.464-.105ZM92,34.475c-.717.165-1.382.314-1.382.314l-.1.021a3.688,3.688,0,0,1-.678.112l-.074,0c-.216-.272-1.168-1.83-1.168-8.008a36.341,36.341,0,0,1,.432-6.263h2.158v6.7H92Zm8.3,5.318H94.157V25.19h-.81V22.318h6.108v14.6h.843Zm23.554-14.6h-.9L117.48,45.362h-3.317l1.624-5.982-4-14.19H106.9v9.526a2.707,2.707,0,0,0,.421,1.711,1.531,1.531,0,0,0,1.3.5,2.861,2.861,0,0,0,.5-.026l.437-.063v2.84l-.358.025s-1.358.1-2.034.1a5.894,5.894,0,0,1-3.634-1.115c-1.2-.929-2.1-2.59-2.093-5.323V25.19h-.811V22.318h.966l2.622-4.856H106.9v4.856h9.475l2.039,7.332,1.934-7.049.076-.283h3.428Z" transform="translate(59.106 8.779)"/>
      <path id="Path_115" data-name="Path 115" d="M43.729,34.8c-.817-1.5-1.38-4.189-1.384-9.187.012-6.04.76-8.95,1.663-10.177a1.4,1.4,0,0,1,1.085-.666c.065,0,.142,0,.223.007a.77.77,0,0,1,.3.065l.17.084.3,1.495H47.5V13.553c-.13-.023-.286-.053-.46-.081a9.152,9.152,0,0,0-1.38-.14h-.012A6.657,6.657,0,0,0,40.6,15.187c-1.568,1.605-2.831,4.659-2.829,10.423s1.254,8.814,2.836,10.42a6.886,6.886,0,0,0,5.2,1.858,7.5,7.5,0,0,0,1.335-.139c.125-.025.23-.049.32-.067V36.446a5.134,5.134,0,0,1-.941.105A2.942,2.942,0,0,1,43.729,34.8" transform="translate(28.562 10.082)" fill="#ef4135"/>
      <path id="Path_116" data-name="Path 116" d="M46.85,36.11a2.145,2.145,0,0,1-2.12-1.349c-.708-1.289-1.293-3.885-1.289-8.823a30.686,30.686,0,0,1,.8-8.121,5,5,0,0,1,.706-1.6c.228-.3.4-.357.472-.357h.035l.328,1.651h2.8V13.262l-.3-.067a13.565,13.565,0,0,0-2.316-.3,7.434,7.434,0,0,0-5.594,2.086c-1.769,1.819-3.047,5.095-3.047,10.957S38.6,35.074,40.391,36.9a7.639,7.639,0,0,0,5.725,2.088h.021a8.538,8.538,0,0,0,2.144-.309l.277-.079V35.822l-.465.1a5.782,5.782,0,0,1-1.243.184m.941,1.9c-.09.019-.195.042-.32.067a7.5,7.5,0,0,1-1.335.139,6.884,6.884,0,0,1-5.2-1.856C39.354,34.755,38.1,31.7,38.1,25.938s1.261-8.818,2.829-10.423a6.655,6.655,0,0,1,5.044-1.853h.012a9.152,9.152,0,0,1,1.38.14c.174.026.33.056.46.081v2.864H46.418l-.3-1.5-.17-.084a.8.8,0,0,0-.3-.065c-.081-.007-.158-.007-.223-.007a1.408,1.408,0,0,0-1.085.666c-.9,1.228-1.651,4.138-1.663,10.177,0,5,.567,7.683,1.384,9.187A2.939,2.939,0,0,0,46.85,36.88a5.3,5.3,0,0,0,.941-.1Z" transform="translate(28.232 9.752)" fill="#fff"/>
      <path id="Path_117" data-name="Path 117" d="M56.6,28.259a7.71,7.71,0,0,0-1.465-5.119,4.906,4.906,0,0,0-3.915-1.588h-.267L49.612,22.9V13.424H45.035V14.76h.81V36.314h-.81v1.34h4.577V25.8a3.331,3.331,0,0,1,.4-1.682,1.335,1.335,0,0,1,2.427,0,3.331,3.331,0,0,1,.4,1.682V37.654h4.575v-1.34H56.6Z" transform="translate(34.056 10.152)" fill="#ef4135"/>
      <path id="Path_118" data-name="Path 118" d="M57.7,28.588a8.426,8.426,0,0,0-1.653-5.615,5.651,5.651,0,0,0-4.494-1.858,1.733,1.733,0,0,0-.548.042l-.1.028-.2.195V12.988H44.6v2.871h.811V35.88H44.6v2.871h6.11V26.13A2.594,2.594,0,0,1,51,24.841c.183-.3.365-.4.555-.4s.371.1.55.4a2.537,2.537,0,0,1,.3,1.289V38.752h6.112V35.88H57.7Zm.042,9.4H53.172V26.13a3.331,3.331,0,0,0-.4-1.682,1.337,1.337,0,0,0-2.427,0,3.331,3.331,0,0,0-.4,1.682V37.984H45.365v-1.34h.81V15.092h-.81V13.754h4.577v9.478l1.347-1.351h.267a4.9,4.9,0,0,1,3.915,1.588,7.707,7.707,0,0,1,1.465,5.119v8.056h.81Z" transform="translate(33.726 9.822)" fill="#fff"/>
      <path id="Path_119" data-name="Path 119" d="M62.386,19.106a5.287,5.287,0,0,0-3.237-1.147h-.009c-2.165.03-5.481,1.612-5.511,7.871,0,3.516.911,5.637,2.123,6.886a5.685,5.685,0,0,0,4.164,1.672,10.47,10.47,0,0,0,2.271-.251V32.91a7.833,7.833,0,0,1-1.3.105,2.57,2.57,0,0,1-2-.878,4.588,4.588,0,0,1-.971-2.216l-.077-.4.4-.056a8.184,8.184,0,0,0,3.393-1.254,5.686,5.686,0,0,0,2.49-5.035,4.982,4.982,0,0,0-1.744-4.073m-4.817,8.957h-.344l-.035-.346c-.035-.357-.1-1.791-.1-2.3.011-2.847.193-4.656.694-5.557a.974.974,0,0,1,.824-.557.873.873,0,0,1,.673.339,2.167,2.167,0,0,1,.371.755,9.819,9.819,0,0,1,.277,2.657c0,3.827-1.444,4.974-2.359,5.012" transform="translate(40.556 13.581)" fill="#ef4135"/>
      <path id="Path_120" data-name="Path 120" d="M59.47,17.523a5.686,5.686,0,0,0-4.115,1.846c-1.254,1.345-2.164,3.519-2.162,6.793,0,3.641.95,5.99,2.338,7.42a6.444,6.444,0,0,0,4.717,1.9h.009a11.907,11.907,0,0,0,2.726-.332l.3-.065V32.277l-.476.119a6.73,6.73,0,0,1-1.593.183,1.806,1.806,0,0,1-1.421-.618,3.5,3.5,0,0,1-.71-1.468A8.9,8.9,0,0,0,62.4,29.177a6.462,6.462,0,0,0,2.826-5.669A5.738,5.738,0,0,0,63.2,18.845a6.047,6.047,0,0,0-3.732-1.322m2.5,11.02A8.181,8.181,0,0,1,58.576,29.8l-.4.056.077.4a4.556,4.556,0,0,0,.971,2.216,2.566,2.566,0,0,0,1.993.878,7.856,7.856,0,0,0,1.3-.105v1.228a10.484,10.484,0,0,1-2.271.251,5.691,5.691,0,0,1-4.166-1.672c-1.21-1.247-2.12-3.368-2.123-6.884.032-6.261,3.347-7.843,5.511-7.873h.011a5.3,5.3,0,0,1,3.237,1.147,4.987,4.987,0,0,1,1.744,4.073,5.686,5.686,0,0,1-2.49,5.035" transform="translate(40.225 13.252)" fill="#fff"/>
      <path id="Path_121" data-name="Path 121" d="M57.791,19.062a.869.869,0,0,0-.673-.341.975.975,0,0,0-.824.558c-.5.9-.683,2.71-.7,5.557,0,.513.067,1.946.1,2.3l.035.348h.344c.915-.04,2.355-1.185,2.359-5.014a9.745,9.745,0,0,0-.279-2.657,2.142,2.142,0,0,0-.369-.753m-.841,6.932a1.9,1.9,0,0,1-.518.58c-.03-.564-.065-1.412-.063-1.737a23.38,23.38,0,0,1,.279-4.2,3.277,3.277,0,0,1,.309-.969c.116-.191.162-.176.162-.176s.014-.012.083.065a5.56,5.56,0,0,1,.472,2.919,6.771,6.771,0,0,1-.724,3.521" transform="translate(42.045 14.158)" fill="#fff"/>
      <path id="Path_122" data-name="Path 122" d="M66.605,31.236a9.7,9.7,0,0,1-1.113-5.051c.011-2.957.353-5.014,1.1-6.027a1.313,1.313,0,0,1,1.029-.574h.306l.292,1.3h1.414V18.228c-.079-.014-.174-.033-.286-.051a11.773,11.773,0,0,0-1.788-.125,6.447,6.447,0,0,0-3.637,1.336c-1.437,1.117-2.743,3.1-2.748,6.8.005,3.762,1.335,5.738,2.85,6.835a7.34,7.34,0,0,0,4.148,1.3,10.705,10.705,0,0,0,1.914-.153V32.91a7.352,7.352,0,0,1-.813.037,3.164,3.164,0,0,1-2.669-1.711" transform="translate(46.261 13.652)" fill="#ef4135"/>
      <path id="Path_123" data-name="Path 123" d="M69.6,32.509a2.4,2.4,0,0,1-2.014-1.344,8.98,8.98,0,0,1-1-4.65,17.353,17.353,0,0,1,.46-4.461,3.383,3.383,0,0,1,.485-1.1,1.529,1.529,0,0,1,.144-.151l.263,1.175h2.792v-4l-.269-.084a9.04,9.04,0,0,0-2.571-.277,7.185,7.185,0,0,0-4.108,1.5c-1.626,1.249-3.054,3.523-3.047,7.4-.007,3.941,1.451,6.226,3.172,7.459A8.1,8.1,0,0,0,68.5,35.412a9.775,9.775,0,0,0,2.4-.239l.281-.079V32.34l-.448.077a5.534,5.534,0,0,1-1.135.091m.815,1.986a10.713,10.713,0,0,1-1.916.153,7.335,7.335,0,0,1-4.146-1.3c-1.516-1.1-2.845-3.073-2.85-6.835.005-3.7,1.312-5.68,2.747-6.8a6.451,6.451,0,0,1,3.639-1.336,11.746,11.746,0,0,1,1.786.125c.114.018.207.037.286.051v2.654H68.552l-.292-1.3h-.306a1.307,1.307,0,0,0-1.029.574c-.75,1.013-1.092,3.07-1.1,6.027a9.7,9.7,0,0,0,1.113,5.051A3.161,3.161,0,0,0,69.6,33.276a7.409,7.409,0,0,0,.815-.037Z" transform="translate(45.93 13.322)" fill="#fff"/>
      <path id="Path_124" data-name="Path 124" d="M76.752,26.566l1.793-3.514h.662v-1.34H77.132L73.486,28.5l-.722-.181v-14.9H68.187v1.336H69V36.315h-.81v1.338h4.577v-8.49l.75-.1,2.385,8.59h4.313V36.315H79.5Z" transform="translate(51.564 10.152)" fill="#ef4135"/>
      <path id="Path_125" data-name="Path 125" d="M77.9,26.977l1.442-2.831H80.3V21.275H77l-3.145,5.853V12.989H67.751v2.87h.81V35.879h-.81v2.871h6.108V32.309l1.788,6.442h5.66V35.879h-.9Zm2.64,11.006H76.228l-2.383-8.591-.752.1v8.49H68.517v-1.34h.81V15.091h-.81V13.753h4.577v14.9l.722.181,3.646-6.793h2.078v1.34h-.662L77.082,26.9l2.743,9.747h.717Z" transform="translate(51.234 9.823)" fill="#fff"/>
      <path id="Path_126" data-name="Path 126" d="M85.787,34.795c-.815-1.5-1.379-4.187-1.384-9.183.014-6.041.762-8.951,1.663-10.179a1.406,1.406,0,0,1,1.085-.666c.065,0,.142,0,.225.007a.744.744,0,0,1,.3.065l.167.084.3,1.495h1.4V13.553c-.126-.023-.286-.053-.458-.081a9.175,9.175,0,0,0-1.38-.14H87.7a6.651,6.651,0,0,0-5.042,1.856c-1.568,1.6-2.831,4.657-2.831,10.423s1.256,8.813,2.836,10.418a6.884,6.884,0,0,0,5.2,1.858,7.284,7.284,0,0,0,1.333-.139c.126-.025.232-.049.323-.067V36.446a5.138,5.138,0,0,1-.945.105,2.94,2.94,0,0,1-2.789-1.756" transform="translate(60.367 10.082)" fill="#ef4135"/>
      <path id="Path_127" data-name="Path 127" d="M88.905,36.11a2.138,2.138,0,0,1-2.116-1.349c-.708-1.289-1.293-3.883-1.289-8.821a30.888,30.888,0,0,1,.8-8.122,5.119,5.119,0,0,1,.708-1.6c.228-.3.4-.357.472-.357h.035l.328,1.651h2.8V13.26l-.3-.065a13.505,13.505,0,0,0-2.316-.3,7.442,7.442,0,0,0-5.6,2.086c-1.767,1.821-3.044,5.093-3.044,10.959s1.27,9.138,3.056,10.955a7.637,7.637,0,0,0,5.725,2.086h.021a8.609,8.609,0,0,0,2.144-.306l.277-.081V35.822l-.465.1a5.766,5.766,0,0,1-1.245.184m.945,1.9c-.091.019-.2.042-.323.067a7.284,7.284,0,0,1-1.333.139,6.882,6.882,0,0,1-5.2-1.856c-1.581-1.605-2.836-4.659-2.836-10.42s1.263-8.82,2.831-10.423a6.649,6.649,0,0,1,5.042-1.855h.012a9.175,9.175,0,0,1,1.38.14c.172.026.332.056.458.081v2.864h-1.4l-.3-1.5-.167-.084a.775.775,0,0,0-.3-.065c-.083-.007-.16-.007-.225-.007a1.411,1.411,0,0,0-1.085.666c-.9,1.228-1.649,4.138-1.663,10.179.005,5,.569,7.682,1.384,9.183a2.937,2.937,0,0,0,2.789,1.756,5.3,5.3,0,0,0,.945-.1Z" transform="translate(60.037 9.752)" fill="#fff"/>
      <path id="Path_128" data-name="Path 128" d="M89.657,18.6c1.092,0,2.071-1.061,2.078-2.662s-.985-2.655-2.078-2.659A1.824,1.824,0,0,0,88.242,14a3.3,3.3,0,0,0,0,3.872,1.821,1.821,0,0,0,1.416.725" transform="translate(66.254 10.041)" fill="#ef4135"/>
      <path id="Path_129" data-name="Path 129" d="M89.989,19.7c1.624-.011,2.842-1.528,2.845-3.428s-1.219-3.419-2.845-3.428c-1.6.012-2.808,1.528-2.812,3.428s1.212,3.418,2.812,3.428m-1.416-5.365a1.824,1.824,0,0,1,1.416-.724c1.092,0,2.069,1.063,2.076,2.661s-.983,2.657-2.076,2.661a1.821,1.821,0,0,1-1.416-.725,3.3,3.3,0,0,1,0-3.872" transform="translate(65.924 9.71)" fill="#fff"/>
      <path id="Path_130" data-name="Path 130" d="M91.82,18.144H87.244v1.34h.81v14.6h4.608v-1.34H91.82Z" transform="translate(65.975 13.721)" fill="#ef4135"/>
      <path id="Path_131" data-name="Path 131" d="M92.916,17.707H86.808v2.871h.808v14.6h6.143V32.312h-.843Zm.076,16.709H88.383v-14.6h-.811v-1.34H92.15v14.6h.841Z" transform="translate(65.645 13.391)" fill="#fff"/>
      <path id="Path_132" data-name="Path 132" d="M105.79,20.236H96.128V15.378H94.67l-2.624,4.858h-.655v1.34h.81v8.93c.005,2.576.808,3.944,1.8,4.715a5.134,5.134,0,0,0,3.163.955c.418,0,1.178-.042,1.624-.07v-1.27h-.167a2.3,2.3,0,0,1-1.9-.78,3.471,3.471,0,0,1-.59-2.192V21.576h6.229l4.218,14.947-1.416,5.223h1.728l5.472-20.17h.72v-1.34h-2.074l-2.59,9.445Z" transform="translate(69.111 11.63)" fill="#ef4135"/>
      <path id="Path_133" data-name="Path 133" d="M110.674,20.082l-1.932,7.048L106.7,19.8H97.226V14.942H94.541L91.919,19.8h-.966v2.871h.811v8.166c-.005,2.731.892,4.394,2.092,5.321a5.9,5.9,0,0,0,3.635,1.117c.674,0,2.03-.1,2.034-.1l.358-.025v-2.84l-.437.063a2.861,2.861,0,0,1-.5.026,1.542,1.542,0,0,1-1.3-.493,2.724,2.724,0,0,1-.421-1.712V22.669h4.881l4.006,14.19-1.624,5.983h3.317l5.472-20.174h.9V19.8h-3.43Zm2.738.483v1.34h-.72l-5.472,20.17h-1.73l1.417-5.223-4.218-14.947H96.459V32.2a3.461,3.461,0,0,0,.59,2.192,2.3,2.3,0,0,0,1.9.78h.165v1.27c-.446.028-1.2.07-1.623.07a5.127,5.127,0,0,1-3.163-.955c-.991-.771-1.793-2.139-1.8-4.715v-8.93h-.81v-1.34h.655L95,15.708h1.458v4.858h9.663l2.626,9.445,2.589-9.445Z" transform="translate(68.78 11.3)" fill="#fff"/>
    </g>
  </g>
</svg>
