<svg id="Group_1157" data-name="Group 1157" xmlns="http://www.w3.org/2000/svg" width="85.656" height="35" viewBox="0 0 85.656 35">
  <path id="Path_4212" data-name="Path 4212" d="M-690.962-2584.178a12.425,12.425,0,0,1,2.865-5.123c-9.5.569-10.261.765-10.266.743,8.655-2.33,12.326-3.141,12.353-3.251-9.449.8-18.442,1.931-18.442,1.931,8.067-2.133,18.972-4.664,18.858-4.654-9.148,1-16.314,1.639-16.2,1.629,31.093-7.709,42.035-9.708,45.884-10.167q1.842-.244,3.713-.4c19.2-1.633,32.983,4.358,30.778,13.382s-19.56,17.663-38.765,19.295-32.983-4.359-30.778-13.382" transform="translate(704.452 2604.753)" fill="#e1251b"/>
  <path id="Path_4213" data-name="Path 4213" d="M-336.3-1814.372l.03-.107-3.074-.633,5.352-1.869a20.131,20.131,0,0,1,4.536-1.167c3.339-.284,5.689.947,5.248,2.748s-3.5,3.492-6.843,3.775-5.689-.946-5.249-2.747" transform="translate(348.941 1839.839)" fill="#fff"/>
  <path id="Path_4214" data-name="Path 4214" d="M957.178-2641.9l.591-.052c20.374-1.732,34.992,4.625,32.652,14.2s-20.752,18.738-41.126,20.471l-.589.048c20.137-1.858,38.217-10.937,40.534-20.418s-12-15.806-32.063-14.245" transform="translate(-905.271 2642.233)" fill="#1a4c34"/>
  <path id="Path_4215" data-name="Path 4215" d="M938.99-2541.716q.836-.092,1.677-.163c17.331-1.473,29.768,3.934,27.777,12.078s-17.654,15.94-34.984,17.413q-.842.072-1.668.122c16.654-1.816,31.382-9.37,33.308-17.251s-9.655-13.2-26.11-12.2" transform="translate(-888.801 2544.751)" fill="#1a4c34"/>
  <path id="Path_4216" data-name="Path 4216" d="M-42.164-1846.989c.118-.013.236-.025.355-.035,4.106-.349,7,1.164,6.455,3.379s-4.31,4.294-8.416,4.643c-.119.011-.236.019-.353.026,3.966-.435,7.535-2.458,8.06-4.609s-2.184-3.639-6.1-3.4" transform="translate(61.473 1867.965)" fill="#fff"/>
  <g id="Group_444" data-name="Group 444" transform="translate(10.642 22.508)">
    <path id="Path_4217" data-name="Path 4217" d="M-2.775-1783.1a4.466,4.466,0,0,1-1.557.458c-.911.078-1.416-.282-1.282-.828.081-.332.5-.969,1.65-1.066a2.615,2.615,0,0,1,1.431.253l.284-1.165a5.131,5.131,0,0,0-1.759-.1c-2.42.206-3.412,1.525-3.6,2.284-.243.991.557,1.889,2.581,1.716a6.452,6.452,0,0,0,1.989-.482Z" transform="translate(15.314 1785.581)" fill="#1a4c34" fill-rule="evenodd"/>
    <path id="Path_4218" data-name="Path 4218" d="M-295.241-1764.934l-1.554-.149.96-.379c-.392,0-2.094.094-2.348.143.749-.254,2.306-.75,2.446-.794-.2.025-3.689.451-3.688.45,1.851-.546,4.843-1.393,5.127-1.473a4.024,4.024,0,0,1,.756-.136,2.562,2.562,0,0,1,1.607.315l-.264,1.078a1.959,1.959,0,0,0-1.219-.4c-.333.028-.511.187-.538.3-.048.2.254.3.729.462.385.133,1.092.381.937,1.016-.048.2-.461,1.215-2.506,1.389a3.964,3.964,0,0,1-1.7-.123l.265-1.084a2.514,2.514,0,0,0,1.254.218c.518-.044.651-.221.671-.3.041-.169-.177-.247-.844-.493Z" transform="translate(299.423 1767.766)" fill="#1a4c34"/>
  </g>
  <g id="Group_447" data-name="Group 447" transform="translate(20.995 2.834)">
    <g id="Group_445" data-name="Group 445" transform="translate(6.494 14.665)">
      <path id="Path_4219" data-name="Path 4219" d="M354.159-1847.144l-.169-.034a.585.585,0,0,1-.315.153,6.663,6.663,0,0,1-1.06-.21,10.507,10.507,0,0,0-2.911-.083c-2.763.235-6.318,1.957-7.551,4.886s1.083,4.152,3.844,3.918a20.346,20.346,0,0,0,4.9-1.269c.121-.01.182,0,.186.111l.256-.132-.7-2.418-.238.131c0,.079.042.139,0,.237-.2.475-2.683,1.111-3.287,1.163-1.4.119-2.97-.3-2.268-1.969s2.756-2.4,4.155-2.514c1.468-.125,2.618.187,2.48.514a1.3,1.3,0,0,1-.137.249l.125.1Z" transform="translate(-341.814 1850.761)" fill="#1a4c34" fill-rule="evenodd"/>
      <path id="Path_4220" data-name="Path 4220" d="M756.28-1885.415l.036,3.752-3.211.273Zm-.067,5.023c-.021.206-.005,1.358-.033,1.422-.042.1-.163.188-.411.225l-.082.2,3.4-.289.083-.2c-.208.017-.27-.072-.277-.45-.024-2.4-.088-7.108-.033-7.239.069-.163.2-.206.4-.239l.083-.2-4.507.382-.082.2c.148,0,.325.02.277.135-.042.1-5.99,7.546-6.3,7.935a.964.964,0,0,1-.607.415l-.082.2,3.056-.26.082-.2c-.242.021-.283-.039-.242-.138s.234-.32,1.186-1.552Z" transform="translate(-737.366 1889.499)" fill="#1a4c34" fill-rule="evenodd"/>
      <path id="Path_4221" data-name="Path 4221" d="M1230.247-1966.169a1.435,1.435,0,0,1,.435-.242,6.929,6.929,0,0,0,3.157.489l-.723,1.718,1.209-.1.723-1.719c1.8-.169,4.177-1.065,5.045-3.126.827-1.964-1.312-2.145-2.8-2.208l.785-1.866c1.385-.086,2.18.477,2.09.691-.049.115-.142.217-.176.3l.162.049,2-2.426-.187-.032a.865.865,0,0,1-.353.2,13.624,13.624,0,0,0-2.866-.388l.585-1.391-1.208.1-.585,1.391c-1.879.27-3.9,1.073-4.759,3.118-.73,1.735,1.2,2.06,2.555,2.118l-.812,1.931c-1.537-.106-2.363-.4-2.377-.76a.78.78,0,0,1,.138-.406l-.173-.064-2.048,2.572Zm5.893-5.219c-.538.015-1.4-.039-1.1-.743.3-.72,1.239-.926,1.833-.992Zm.334,1.975c.5.068,1.651-.046,1.313.756-.323.769-1.459.976-2.063,1.028Z" transform="translate(-1206.729 1976.22)" fill="#1a4c34" fill-rule="evenodd"/>
      <path id="Path_4222" data-name="Path 4222" d="M1661.7-1972.708c.062-.147.162-.267.607-.335l.083-.2-3.557.3-.082.2c.418,0,.421.106.359.253l-1.095,2.6-4.489.382,1.1-2.6c.061-.147.161-.265.607-.335l.083-.2-3.556.3-.084.2c.418,0,.422.106.36.253l-3.21,7.626c-.062.147-.162.265-.608.335l-.082.2,3.557-.3.082-.2c-.417,0-.421-.106-.358-.253l1.273-3.028,4.489-.381-1.274,3.027c-.063.147-.163.266-.608.336l-.082.2,3.557-.3.082-.2c-.417,0-.421-.106-.359-.253Z" transform="translate(-1613.813 1973.317)" fill="#1a4c34" fill-rule="evenodd"/>
    </g>
    <g id="Group_446" data-name="Group 446" transform="translate(0 0)">
      <path id="Path_4223" data-name="Path 4223" d="M574.79-2401.023l3.141-.267,1.614-3.7,1.059-.09c2.819-.24,4.159-1.1,5.515-4.2l.988-2.262c1.034-2.37.15-3.055-2.12-2.863l-4.521.385Zm5.774-6.3,2.022-4.632.908-.077c.548-.047.664.064.476.495l-1.364,3.125c-.313.718-.661.973-1.115,1.01Z" transform="translate(-562.174 2417.588)" fill="#1a4c34" fill-rule="evenodd"/>
      <path id="Path_4224" data-name="Path 4224" d="M925.562-2434.477l6.262-.533,1.019-2.333-3.121.265,1.419-3.25,2.686-.228.972-2.227-2.686.229,1.247-2.855,2.894-.246,1.019-2.334-6.035.513Z" transform="translate(-903.73 2450.258)" fill="#1a4c34" fill-rule="evenodd"/>
      <path id="Path_4225" data-name="Path 4225" d="M1222.9-2459.759l6.262-.532,1.019-2.334-3.122.265,1.418-3.25,2.686-.228.972-2.226-2.687.228,1.247-2.855,2.894-.246,1.019-2.334-6.035.513Z" transform="translate(-1193.255 2474.875)" fill="#1a4c34" fill-rule="evenodd"/>
      <path id="Path_4226" data-name="Path 4226" d="M1528.06-2491.816l.832-.072c.681-.057.707.217.284,1.187l-2.586,5.925c-.423.969-.7,1.27-1.381,1.327l-.832.071Zm-7.843,11.039,4.086-.347c2.932-.25,4.118-.921,5.983-5.194l1.419-3.25c1.865-4.272,1.205-4.8-1.727-4.555l-4.086.347Z" transform="translate(-1482.761 2495.23)" fill="#1a4c34" fill-rule="evenodd"/>
      <path id="Path_4227" data-name="Path 4227" d="M1955.021-2520.876l3.026-.257,1.834-4.2,6.717-9.023-3.1.264-3.822,5.941-.039,0,1.288-5.726-3.1.264-.966,8.534Z" transform="translate(-1906.141 2534.357)" fill="#1a4c34" fill-rule="evenodd"/>
      <path id="Path_4228" data-name="Path 4228" d="M102.546-2378.986l-.408.933c-.392.9-.548,1.257.378,1.178a1.282,1.282,0,0,0,1.264-.851l.611-1.4c.392-.9.208-.934-1.274-1.171-2.2-.349-2.427-.865-1.417-3.181-2.178-.456-6.764-1.4-7.069-1.385a96.56,96.56,0,0,1,11.152-2.874c.491-.092,1.048-.153,1.693-.208,2.724-.232,3.319.409,2.527,2.223l-.682,1.562-2.8.238.274-.628c.5-1.149.446-1.231-.349-1.164-.833.071-1.03.4-1.3,1.009l-.377.861c-.361.826-.2.951.636,1.087,2.988.541,3.264.742,1.807,4.081-1.364,3.124-2.818,3.784-5.485,4.011-3.4.29-3.7-.411-2.571-3l.47-1.077Z" transform="translate(-94.633 2391.837)" fill="#1a4c34"/>
    </g>
  </g>
  <g id="Group_450" data-name="Group 450" transform="translate(22.185 2.713)">
    <g id="Group_448" data-name="Group 448" transform="translate(6.487 14.686)">
      <path id="Path_4229" data-name="Path 4229" d="M399.134-1850.957l-.169-.033a.583.583,0,0,1-.314.152,6.656,6.656,0,0,1-1.061-.209,10.5,10.5,0,0,0-2.911-.084c-2.762.235-6.318,1.958-7.55,4.887s1.082,4.152,3.844,3.917a20.346,20.346,0,0,0,4.9-1.269c.12-.01.183,0,.186.111l.256-.132-.7-2.417-.238.13c0,.079.041.138,0,.236-.2.475-2.682,1.112-3.285,1.164-1.4.119-2.97-.3-2.268-1.969s2.756-2.4,4.155-2.514c1.468-.125,2.618.188,2.48.515a1.306,1.306,0,0,1-.138.248l.125.1Z" transform="translate(-386.789 1854.574)" fill="#fff" fill-rule="evenodd"/>
      <path id="Path_4230" data-name="Path 4230" d="M801.234-1889.243l.036,3.752-3.212.273Zm-.066,5.023c-.02.206-.006,1.357-.033,1.422-.041.1-.162.187-.41.225l-.082.2,3.4-.289.082-.2c-.207.017-.269-.072-.277-.45-.023-2.4-.088-7.108-.033-7.239.068-.164.2-.207.4-.24l.082-.2-4.506.383-.083.2c.149,0,.325.019.277.134-.041.1-5.99,7.546-6.3,7.936a.964.964,0,0,1-.607.415l-.082.2,3.055-.26.084-.2c-.242.02-.284-.039-.242-.137s.234-.32,1.186-1.552Z" transform="translate(-782.32 1893.327)" fill="#fff" fill-rule="evenodd"/>
      <path id="Path_4231" data-name="Path 4231" d="M1275.2-1970a1.429,1.429,0,0,1,.435-.243,6.935,6.935,0,0,0,3.156.49l-.723,1.717,1.209-.1.723-1.718c1.8-.169,4.177-1.065,5.045-3.127.827-1.964-1.312-2.145-2.8-2.207l.785-1.866c1.385-.086,2.18.477,2.09.69-.048.115-.141.217-.175.3l.162.049,2-2.426-.187-.032a.854.854,0,0,1-.353.2,13.617,13.617,0,0,0-2.866-.387l.586-1.392-1.209.1-.585,1.391c-1.879.27-3.9,1.073-4.759,3.119-.729,1.734,1.2,2.059,2.555,2.118l-.812,1.931c-1.537-.106-2.363-.4-2.377-.761a.788.788,0,0,1,.138-.406l-.172-.064-2.049,2.573Zm5.892-5.219c-.538.014-1.4-.038-1.1-.742.3-.72,1.239-.926,1.833-.992Zm.334,1.976c.5.067,1.651-.045,1.313.756-.324.769-1.459.976-2.063,1.027Z" transform="translate(-1251.682 1980.048)" fill="#fff" fill-rule="evenodd"/>
      <path id="Path_4232" data-name="Path 4232" d="M1706.656-1976.555c.062-.148.162-.267.607-.336l.083-.2-3.557.3-.083.2c.418,0,.422.106.36.254l-1.1,2.6-4.489.381,1.095-2.6c.062-.147.162-.267.608-.336l.082-.2-3.556.3-.084.2c.418,0,.422.107.36.254l-3.21,7.626c-.062.147-.161.266-.607.336l-.083.2,3.557-.3.082-.2c-.417,0-.422-.106-.359-.253l1.274-3.027,4.489-.381-1.274,3.027c-.063.147-.163.266-.608.335l-.082.2,3.557-.3.082-.2c-.417,0-.422-.106-.359-.253Z" transform="translate(-1658.765 1977.166)" fill="#fff" fill-rule="evenodd"/>
    </g>
    <g id="Group_449" data-name="Group 449" transform="translate(0 0)">
      <path id="Path_4233" data-name="Path 4233" d="M620.656-2404.91l3.141-.267,1.614-3.7,1.06-.091c2.818-.24,4.158-1.1,5.514-4.2l.988-2.262c1.035-2.37.15-3.055-2.121-2.862l-4.52.384Zm5.773-6.3,2.022-4.632.909-.077c.548-.047.664.064.476.5l-1.364,3.125c-.314.718-.661.972-1.116,1.011Z" transform="translate(-608.024 2421.494)" fill="#fff" fill-rule="evenodd"/>
      <path id="Path_4234" data-name="Path 4234" d="M971.428-2438.35l6.262-.532,1.018-2.334-3.121.265,1.419-3.25,2.686-.229.972-2.226-2.687.228,1.247-2.854,2.894-.246,1.019-2.333-6.035.512Z" transform="translate(-949.58 2454.15)" fill="#fff" fill-rule="evenodd"/>
      <path id="Path_4235" data-name="Path 4235" d="M1268.766-2463.651l6.261-.532,1.019-2.334-3.122.265,1.419-3.25,2.687-.228.972-2.227-2.686.228,1.246-2.854,2.895-.247,1.018-2.333-6.034.512Z" transform="translate(-1239.106 2478.787)" fill="#fff" fill-rule="evenodd"/>
      <path id="Path_4236" data-name="Path 4236" d="M1573.926-2495.733l.832-.07c.681-.059.707.216.284,1.186l-2.586,5.925c-.423.969-.7,1.269-1.381,1.327l-.833.071Zm-7.843,11.039,4.086-.347c2.932-.249,4.118-.92,5.983-5.193l1.419-3.249c1.865-4.274,1.205-4.805-1.728-4.556l-4.085.348Z" transform="translate(-1528.611 2499.165)" fill="#fff" fill-rule="evenodd"/>
      <path id="Path_4237" data-name="Path 4237" d="M2000.864-2525.485l3.027-.257,1.834-4.2,6.716-9.042-3.1.264-3.822,5.961-.038,0,1.288-5.745-3.1.263-.965,8.553Z" transform="translate(-1951.969 2538.985)" fill="#fff" fill-rule="evenodd"/>
      <path id="Path_4238" data-name="Path 4238" d="M150.567-2391.537l.236-.057c-.08.018-.159.037-.236.057m-2.741,8.64-.408.933c-.392.9-.549,1.256.378,1.178a1.282,1.282,0,0,0,1.264-.851l.612-1.4c.392-.9.207-.934-1.274-1.172-2.2-.349-2.428-.865-1.417-3.182l.061-.139-2.058-.325,2.53-.741c-.349.007-4.893.184-4.927.2,1.966-.44,5.606-1.478,5.606-1.478s-7.139.856-8.173,1.067l-.124.036a.323.323,0,0,1,.124-.036c3.3-.959,9.287-2.425,10.546-2.732.077-.02.156-.039.236-.057a14.95,14.95,0,0,1,1.954-.262c2.725-.232,3.319.409,2.528,2.223l-.682,1.562-2.8.238.274-.628c.5-1.15.446-1.231-.348-1.163-.833.071-1.03.4-1.3,1.008l-.377.863c-.36.826-.2.95.637,1.087,2.988.541,3.264.742,1.806,4.082-1.364,3.124-2.818,3.784-5.485,4.011-3.4.289-3.7-.412-2.572-3l.471-1.078Z" transform="translate(-139.897 2395.766)" fill="#fff"/>
    </g>
  </g>
  <path id="Path_4239" data-name="Path 4239" d="M2475.376-2516.509a1.066,1.066,0,0,1,1.061,1.08,1.065,1.065,0,0,1-1.066,1.085,1.071,1.071,0,0,1-1.071-1.085,1.073,1.073,0,0,1,1.071-1.08Zm0,.168a.89.89,0,0,0-.865.912.89.89,0,0,0,.87.917.881.881,0,0,0,.864-.913.887.887,0,0,0-.864-.916Zm-.2,1.541h-.192V-2516a2.135,2.135,0,0,1,.342-.029.635.635,0,0,1,.374.091.29.29,0,0,1,.11.25.3.3,0,0,1-.235.293v.01c.1.019.177.115.2.292a.988.988,0,0,0,.077.3h-.2a.9.9,0,0,1-.081-.308.226.226,0,0,0-.26-.21h-.135Zm0-.667h.14c.158,0,.292-.058.292-.207,0-.105-.077-.211-.292-.211a1.013,1.013,0,0,0-.14.009Z" transform="translate(-2390.782 2519.812)" fill="#1a4c34"/>
</svg>
