<svg width="32" height="32" viewBox="0 0 32 32" fill="none" xmlns="http://www.w3.org/2000/svg">
<path d="M6.66732 12V28H1.33398V12H6.66732ZM12.0007 28C11.2934 28 10.6151 27.7191 10.115 27.219C9.61494 26.7189 9.33398 26.0406 9.33398 25.3334V12C9.33398 11.2667 9.62732 10.6 10.1207 10.12L18.894 1.33337L20.3073 2.74671C20.6673 3.10671 20.894 3.60004 20.894 4.14671L20.854 4.57337L19.5873 10.6667H28.0007C28.7079 10.6667 29.3862 10.9477 29.8863 11.4478C30.3864 11.9479 30.6673 12.6261 30.6673 13.3334V16C30.6673 16.3467 30.6007 16.6667 30.4807 16.9734L26.454 26.3734C26.054 27.3334 25.1073 28 24.0007 28H12.0007ZM12.0007 25.3334H24.0407L28.0007 16V13.3334H16.2807L17.7873 6.24004L12.0007 12.04V25.3334Z" fill="#5EC189"/>
</svg>
