<svg width="32" height="32" viewBox="0 0 32 32" fill="none" xmlns="http://www.w3.org/2000/svg">
<path d="M15.9993 2.66663C8.66602 2.66663 2.66602 8.66663 2.66602 16C2.66602 23.3333 8.66602 29.3333 15.9993 29.3333C23.3327 29.3333 29.3327 23.3333 29.3327 16C29.3327 8.66663 23.3327 2.66663 15.9993 2.66663ZM15.9993 26.6666C10.1193 26.6666 5.33268 21.88 5.33268 16C5.33268 10.12 10.1193 5.33329 15.9993 5.33329C21.8793 5.33329 26.666 10.12 26.666 16C26.666 21.88 21.8793 26.6666 15.9993 26.6666ZM22.1193 10.1066L13.3327 18.8933L9.87935 15.4533L7.99935 17.3333L13.3327 22.6666L23.9993 12L22.1193 10.1066Z" fill="#5EC189"/>
</svg>
