<svg width="31" height="30" viewBox="0 0 31 30" fill="none" xmlns="http://www.w3.org/2000/svg">
<path fill-rule="evenodd" clip-rule="evenodd" d="M16.493 0.774706C16.3863 0.543422 16.2155 0.347546 16.001 0.210254C15.7864 0.0729624 15.537 0 15.2823 0C15.0276 0 14.7782 0.0729624 14.5637 0.210254C14.3491 0.347546 14.1784 0.543422 14.0717 0.774706L10.245 9.06804L1.17699 10.144C0.923988 10.1739 0.684843 10.2756 0.487853 10.4372C0.290864 10.5987 0.144278 10.8133 0.0654445 11.0556C-0.0133894 11.2978 -0.0211711 11.5576 0.0430203 11.8041C0.107212 12.0507 0.240689 12.2737 0.427655 12.4467L7.13432 18.6467L5.35432 27.6067C5.30488 27.8565 5.32799 28.1152 5.42092 28.3522C5.51384 28.5893 5.6727 28.7948 5.8787 28.9444C6.08471 29.094 6.32925 29.1815 6.58342 29.1966C6.83759 29.2117 7.09075 29.1536 7.31299 29.0294L15.2823 24.568L23.2517 29.0294C23.474 29.1542 23.7275 29.2126 23.9821 29.1977C24.2366 29.1828 24.4816 29.0952 24.6879 28.9453C24.8942 28.7954 25.0532 28.5895 25.146 28.352C25.2388 28.1146 25.2616 27.8554 25.2117 27.6054L23.4317 18.648L30.137 12.4467C30.324 12.2737 30.4574 12.0507 30.5216 11.8041C30.5858 11.5576 30.578 11.2978 30.4992 11.0556C30.4204 10.8133 30.2738 10.5987 30.0768 10.4372C29.8798 10.2756 29.6407 10.1739 29.3877 10.144L20.3183 9.06671L16.493 0.774706Z" fill="#5EC189"/>
</svg>
