<svg width="12" height="16" viewBox="0 0 12 16" fill="none" xmlns="http://www.w3.org/2000/svg">
<path d="M11.5 5.75328C11.5006 4.78931 11.2587 3.84067 10.7968 2.99459C10.3349 2.14852 9.66764 1.43215 8.85646 0.911363C8.04528 0.390576 7.11619 0.0820852 6.15461 0.0142543C5.19303 -0.0535765 4.22983 0.12143 3.35357 0.523183C2.47732 0.924935 1.71613 1.54054 1.13999 2.31339C0.563854 3.08624 0.191266 3.99154 0.0564842 4.94604C-0.0782979 5.90053 0.0290521 6.8736 0.368663 7.77576C0.708275 8.67792 1.26925 9.48023 2 10.1089V14.7533C2.00002 14.8811 2.03272 15.0069 2.095 15.1185C2.15728 15.2302 2.24707 15.3241 2.35584 15.3913C2.46462 15.4585 2.58876 15.4967 2.71649 15.5024C2.84422 15.5082 2.97129 15.4811 3.08563 15.4239L5.75 14.092L8.415 15.4239C8.52932 15.481 8.65632 15.5079 8.78396 15.5021C8.91159 15.4963 9.03564 15.458 9.14432 15.3908C9.25301 15.3237 9.34273 15.2298 9.40498 15.1183C9.46722 15.0067 9.49993 14.881 9.5 14.7533V10.1089C10.1275 9.56984 10.6311 8.90154 10.9763 8.14977C11.3214 7.398 11.5001 6.58051 11.5 5.75328ZM1.5 5.75328C1.5 4.9127 1.74926 4.09101 2.21625 3.3921C2.68325 2.69319 3.34701 2.14846 4.1236 1.82679C4.90018 1.50511 5.75472 1.42095 6.57914 1.58494C7.40355 1.74892 8.16083 2.1537 8.75521 2.74807C9.34958 3.34244 9.75435 4.09972 9.91834 4.92414C10.0823 5.74856 9.99816 6.60309 9.67649 7.37968C9.35482 8.15627 8.81008 8.82003 8.11117 9.28702C7.41227 9.75402 6.59057 10.0033 5.75 10.0033C4.62319 10.0021 3.54285 9.55398 2.74608 8.7572C1.9493 7.96042 1.50116 6.88009 1.5 5.75328ZM8 13.5402L6.085 12.5827C5.9808 12.5305 5.86589 12.5034 5.74938 12.5034C5.63286 12.5034 5.51795 12.5305 5.41375 12.5827L3.5 13.5395V11.0445C4.21155 11.3471 4.9768 11.503 5.75 11.503C6.5232 11.503 7.28846 11.3471 8 11.0445V13.5402ZM5.75 9.00328C6.39279 9.00328 7.02114 8.81267 7.5556 8.45555C8.09006 8.09844 8.50662 7.59086 8.75261 6.997C8.99859 6.40314 9.06296 5.74967 8.93755 5.11923C8.81215 4.48879 8.50262 3.9097 8.0481 3.45518C7.59358 3.00066 7.01448 2.69112 6.38404 2.56572C5.75361 2.44032 5.10014 2.50468 4.50628 2.75067C3.91242 2.99665 3.40484 3.41321 3.04772 3.94767C2.69061 4.48213 2.5 5.11049 2.5 5.75328C2.50099 6.61492 2.84372 7.441 3.453 8.05028C4.06228 8.65956 4.88835 9.00228 5.75 9.00328ZM5.75 4.00327C6.09612 4.00327 6.43446 4.10591 6.72225 4.2982C7.01004 4.4905 7.23434 4.76381 7.36679 5.08358C7.49924 5.40335 7.5339 5.75522 7.46638 6.09468C7.39885 6.43415 7.23218 6.74597 6.98744 6.99071C6.7427 7.23545 6.43088 7.40213 6.09141 7.46965C5.75194 7.53717 5.40008 7.50252 5.08031 7.37006C4.76053 7.23761 4.48722 7.01331 4.29493 6.72552C4.10264 6.43774 4 6.09939 4 5.75328C4 5.28915 4.18438 4.84403 4.51256 4.51584C4.84075 4.18765 5.28587 4.00327 5.75 4.00327Z" fill="white"/>
</svg>
