<svg width="40" height="34" viewBox="0 0 40 34" fill="none" xmlns="http://www.w3.org/2000/svg">
<path d="M37.5067 12.4346C36.5497 10.2097 35.1796 8.21154 33.4349 6.49588C31.6902 4.78023 29.6582 3.43299 27.3957 2.49189C25.0531 1.51738 22.5649 1.02344 20 1.02344C17.4351 1.02344 14.9469 1.51738 12.6043 2.49189C10.3418 3.43299 8.30978 4.78023 6.56508 6.49588C4.82038 8.21154 3.45035 10.2097 2.49331 12.4346C1.5023 14.7382 1 17.185 1 19.7072C1 22.2293 1.5023 24.6761 2.49331 26.9797C3.45035 29.2046 4.82038 31.2028 6.56508 32.9184C6.70728 33.0583 6.9378 33.0583 7.08 32.9184L11.4726 28.599C11.6148 28.4592 11.6148 28.2325 11.4726 28.0927C9.19451 25.8525 7.93997 22.8746 7.93997 19.7072C7.93997 16.5398 9.19451 13.5618 11.4721 11.3212C13.7506 9.08154 16.779 7.84789 20 7.84789C23.221 7.84789 26.2494 9.08154 28.5279 11.3212C28.9904 11.776 29.416 12.2699 29.7985 12.793L19.4564 16.3365C19.1366 16.3861 18.826 16.4792 18.5339 16.6142C18.4446 16.6548 18.3543 16.7011 18.2655 16.7517C16.6086 17.6923 16.0389 19.783 16.9954 21.4128C17.4769 22.2332 18.2922 22.824 19.2313 23.0335C19.4841 23.0903 19.7423 23.1184 20 23.1184C20.5052 23.1184 21.0085 23.0106 21.4676 22.7992C21.5569 22.7586 21.6472 22.7123 21.736 22.6617C22.1072 22.4513 22.4295 22.1797 22.6959 21.8557L30.9904 14.8203C31.6999 16.3555 32.06 17.9972 32.06 19.7072C32.06 22.875 30.8055 25.853 28.5279 28.0931C28.4595 28.1604 28.4212 28.2511 28.4212 28.3461C28.4212 28.441 28.4595 28.5322 28.5279 28.599L32.9205 32.9184C32.9913 32.9881 33.0845 33.0234 33.1777 33.0234C33.2709 33.0234 33.3641 32.9886 33.4349 32.9184C35.1796 31.2028 36.5497 29.2046 37.5067 26.9797C38.4977 24.6761 39 22.2293 39 19.7072C39 17.185 38.4977 14.7382 37.5067 12.4346ZM10.7038 28.3427L6.82473 32.1573C3.53527 28.7937 1.72797 24.3869 1.72797 19.7072C1.72797 15.0274 3.53527 10.6206 6.82521 7.25755L10.7043 11.0721C8.44955 13.4163 7.21201 16.4682 7.21201 19.7072C7.21201 22.9462 8.44907 25.9985 10.7038 28.3427ZM20 7.13204C16.7062 7.13204 13.6026 8.34899 11.2187 10.5657L7.33964 6.75121C10.7596 3.51651 15.241 1.73929 20 1.73929C24.759 1.73929 29.2404 3.51651 32.6604 6.75168L28.7813 10.5662C26.3974 8.34899 23.2938 7.13204 20 7.13204ZM21.371 22.0423C21.3006 22.0819 21.2298 22.1186 21.1589 22.1506C20.6028 22.4064 19.9922 22.4704 19.3919 22.3358C18.6494 22.1697 18.0054 21.703 17.6249 21.0549C16.8692 19.7668 17.3196 18.1146 18.6285 17.3716C18.6989 17.332 18.7697 17.2952 18.8411 17.2628C19.0818 17.1516 19.3366 17.0762 19.5996 17.0385C19.638 17.0327 19.6763 17.0285 19.7146 17.0246C19.7268 17.0232 19.7389 17.0222 19.7505 17.0213C19.7777 17.0189 19.8044 17.017 19.8316 17.0151C19.8447 17.0141 19.8578 17.0137 19.8714 17.0132C19.8995 17.0117 19.9272 17.0113 19.9554 17.0108C19.966 17.0108 19.9772 17.0103 19.9879 17.0103C20.0019 17.0103 20.0155 17.0108 20.0296 17.0108C20.0636 17.0113 20.098 17.0117 20.132 17.0137C20.149 17.0146 20.166 17.0156 20.183 17.017C20.214 17.0189 20.2446 17.0218 20.2757 17.0246C20.2931 17.0265 20.3101 17.028 20.3276 17.0304C20.3596 17.0342 20.3916 17.0389 20.4242 17.0437C20.4392 17.0461 20.4543 17.048 20.4693 17.0509C20.5159 17.059 20.5625 17.0681 20.6091 17.0781C21.3516 17.2442 21.9956 17.7109 22.3761 18.359C22.942 19.3235 22.8536 20.5103 22.1504 21.3823C21.9359 21.6486 21.6734 21.8709 21.371 22.0423ZM23.4278 20.2579C23.4321 20.2302 23.437 20.203 23.4409 20.1753C23.4433 20.1567 23.4457 20.1381 23.4481 20.1195C23.4515 20.0923 23.4545 20.0646 23.4574 20.0374C23.4593 20.0193 23.4613 20.0007 23.4627 19.9825C23.4651 19.9539 23.4671 19.9248 23.4685 19.8962C23.4695 19.8794 23.4705 19.8627 23.4714 19.846C23.4729 19.8088 23.4739 19.7721 23.4739 19.7348C23.4739 19.7263 23.4744 19.7177 23.4744 19.7091C23.4744 19.6642 23.4734 19.6189 23.4714 19.574C23.471 19.5587 23.4695 19.5435 23.469 19.5282C23.4676 19.4977 23.4656 19.4676 23.4632 19.437C23.4617 19.4189 23.4598 19.4008 23.4579 19.3831C23.4549 19.3554 23.452 19.3273 23.4486 19.2996C23.4462 19.281 23.4438 19.2624 23.4414 19.2438C23.4375 19.2161 23.4331 19.1884 23.4283 19.1607C23.4253 19.1426 23.4224 19.1245 23.419 19.1063C23.4137 19.0767 23.4074 19.0476 23.4016 19.0185C23.3982 19.0028 23.3953 18.9865 23.3914 18.9708C23.3821 18.9307 23.3724 18.8911 23.3618 18.8515C23.3603 18.8462 23.3593 18.8415 23.3579 18.8362C23.3457 18.7918 23.3326 18.7474 23.3186 18.7035C23.3142 18.6887 23.3089 18.6744 23.304 18.6601C23.2943 18.63 23.2841 18.6005 23.2734 18.5704C23.2671 18.5537 23.2608 18.5365 23.2545 18.5198C23.2443 18.4926 23.2332 18.4649 23.222 18.4377C23.2147 18.4205 23.2074 18.4034 23.2002 18.3862C23.1885 18.359 23.1764 18.3323 23.1638 18.305C23.156 18.2883 23.1487 18.2721 23.1409 18.2554C23.1269 18.2263 23.1123 18.1977 23.0978 18.169C23.0905 18.1552 23.0837 18.1414 23.0764 18.1275C23.0541 18.085 23.0308 18.043 23.006 18.0015C22.9779 17.9538 22.9488 17.907 22.9182 17.8607C22.9085 17.846 22.8983 17.8316 22.8881 17.8168C22.8667 17.7858 22.8454 17.7548 22.8235 17.7243C22.8114 17.7076 22.7988 17.6913 22.7862 17.6746C22.7648 17.6469 22.7435 17.6193 22.7216 17.5921C22.7085 17.5754 22.6949 17.5591 22.6814 17.5429C22.6585 17.5157 22.6353 17.489 22.6115 17.4627C22.5984 17.4479 22.5853 17.4331 22.5717 17.4184C22.544 17.3883 22.5159 17.3592 22.4872 17.3305C22.477 17.3205 22.4673 17.31 22.4571 17.3C22.4183 17.2613 22.378 17.2241 22.3373 17.1874C22.328 17.1793 22.3188 17.1716 22.3096 17.1635C22.2776 17.1353 22.2451 17.1077 22.2116 17.0805C22.1965 17.0681 22.181 17.0566 22.166 17.0442C22.1378 17.0222 22.1097 17.0003 22.081 16.9793C22.064 16.9669 22.0471 16.9545 22.0296 16.9421C22.0014 16.922 21.9728 16.9025 21.9437 16.8834C21.9262 16.8719 21.9087 16.86 21.8913 16.849C21.8607 16.8294 21.8296 16.8104 21.7981 16.7917C21.7821 16.7822 21.7661 16.7722 21.7496 16.7626C21.7083 16.7388 21.6666 16.7163 21.6243 16.6944C21.6175 16.691 21.6112 16.6872 21.6044 16.6834C21.5554 16.6581 21.5059 16.6343 21.4559 16.6118C21.4409 16.6047 21.4249 16.5985 21.4098 16.5918C21.3744 16.576 21.339 16.5612 21.3031 16.5469C21.2841 16.5393 21.2647 16.5321 21.2453 16.525C21.2259 16.5178 21.207 16.5097 21.1871 16.5025L32.4376 12.6479L30.8759 13.9727L23.4224 20.2942C23.4244 20.2822 23.4258 20.2698 23.4278 20.2579ZM33.1753 32.1568L29.2962 28.3427C31.5509 25.999 32.788 22.9466 32.788 19.7072C32.788 17.823 32.3765 16.0162 31.564 14.3335L33.4538 12.7305C33.6451 12.5682 33.7086 12.3177 33.6247 12.0929C33.6125 12.0609 33.598 12.0294 33.5795 11.9984C33.5276 11.9096 33.4563 11.8395 33.3733 11.7898C33.2272 11.7025 33.0462 11.6801 32.872 11.7397L30.5133 12.5477C30.146 12.027 29.7373 11.5331 29.2952 11.0721L33.1743 7.25755C36.4647 10.6206 38.272 15.0274 38.272 19.7072C38.272 24.3869 36.4647 28.7937 33.1753 32.1568Z" fill="#F06400" stroke="#F06400"/>
</svg>
