<svg width="62" height="54" viewBox="0 0 62 54" fill="none" xmlns="http://www.w3.org/2000/svg">
<g clip-path="url(#clip0_370_2853)">
<path d="M12.2448 37.9249C12.7804 37.9251 13.2084 38.3598 13.2087 38.8888V52.3351C13.2085 52.8707 12.7739 53.2988 12.2448 53.299H3.65887C3.12331 53.2987 2.69514 52.8641 2.69501 52.3351V38.8888C2.69525 38.3533 3.12992 37.9252 3.65887 37.9249H12.2448ZM4.62372 51.3702H11.28V39.8536H4.62372V51.3702Z" fill="#D45B2C" stroke="#D45B2C" stroke-width="0.25"/>
<path d="M27.6103 30.2394C28.1459 30.2395 28.5739 30.6742 28.5742 31.2032V52.3351C28.574 52.8707 28.1394 53.2988 27.6103 53.299H19.0244C18.4888 53.2987 18.0606 52.8641 18.0605 52.3351V31.2032C18.0607 30.6678 18.4954 30.2396 19.0244 30.2394H27.6103ZM19.9892 51.3702H26.6454V32.174H19.9892V51.3702Z" fill="#D45B2C" stroke="#D45B2C" stroke-width="0.25"/>
<path d="M42.9758 37.9249C43.5114 37.9251 43.9395 38.3598 43.9397 38.8888V52.3351C43.9396 52.8707 43.5049 53.2988 42.9758 53.299H34.3899C33.8543 53.2987 33.4262 52.8641 33.426 52.3351V38.8888C33.4263 38.3533 33.8609 37.9252 34.3899 37.9249H42.9758ZM35.3547 51.3702H42.011V39.8536H35.3547V51.3702Z" fill="#D45B2C" stroke="#D45B2C" stroke-width="0.25"/>
<path d="M58.3412 22.5593C58.8768 22.5595 59.3048 22.9942 59.3051 23.5232V52.3347C59.3051 52.8705 58.8704 53.2994 58.3412 53.2996H49.7552C49.2196 53.2993 48.7914 52.8639 48.7914 52.3347V23.5232C48.7916 22.9877 49.2263 22.5596 49.7552 22.5593H58.3412ZM50.7201 51.3708H57.3763V24.488H50.7201V51.3708Z" fill="#D45B2C" stroke="#D45B2C" stroke-width="0.25"/>
<path d="M55.262 0.759888C55.557 0.371273 56.1031 0.2597 56.5286 0.513794H56.5295L56.6106 0.569458C56.9993 0.863814 57.1177 1.41085 56.8567 1.83801L56.8557 1.83704L41.2883 27.6095C41.1058 27.9116 40.7903 28.0761 40.4631 28.0763H40.4573C40.2871 28.0763 40.1163 28.0318 39.9592 27.9376L39.9583 27.9366C39.5064 27.6602 39.354 27.0688 39.6321 26.6134L55.2053 0.840942H55.2063L55.262 0.759888Z" fill="#D45B2C" stroke="#D45B2C" stroke-width="0.25"/>
<path d="M25.2245 20.8512C25.5396 20.4773 26.0901 20.3885 26.5048 20.6715H26.5057L36.7704 27.6002H36.7694C37.183 27.8779 37.3146 28.4265 37.08 28.858L37.0282 28.943C36.8392 29.2201 36.5363 29.3648 36.2284 29.3649C36.0462 29.3649 35.8573 29.3141 35.6874 29.2008H35.6864L25.4227 22.2721C24.9818 21.9758 24.862 21.371 25.1649 20.9293L25.2245 20.8512Z" fill="#D45B2C" stroke="#D45B2C" stroke-width="0.25"/>
<path d="M20.2823 20.4388C20.6643 20.19 21.17 20.2375 21.4952 20.5619L21.5626 20.6361L21.5636 20.6371L21.6212 20.7162C21.8702 21.0983 21.8228 21.6048 21.4982 21.9301L21.424 21.9965L11.3683 30.2025L11.3693 30.2035C11.1932 30.3481 10.9729 30.4231 10.7579 30.4232H10.6329V30.4086C10.399 30.3781 10.1741 30.263 10.0089 30.0658L10.007 30.0638C9.67433 29.6493 9.73063 29.0448 10.1466 28.7045L20.2013 20.4974L20.2023 20.4965L20.2823 20.4388Z" fill="#D45B2C" stroke="#D45B2C" stroke-width="0.25"/>
<path d="M55.8928 0.385864C56.3766 0.306691 56.8504 0.602413 56.9807 1.08704L58.6487 7.26965L58.6692 7.36633C58.7482 7.84914 58.4538 8.32083 57.9709 8.45227L57.9719 8.45325H57.969L57.968 8.45422L57.967 8.45325C57.9248 8.46586 57.8824 8.47396 57.8411 8.47864V8.49133H57.7161C57.2873 8.49133 56.9029 8.2078 56.7834 7.7804V7.77942L55.3674 2.52942L50.1174 3.94543C49.6338 4.07503 49.1385 3.81719 48.9641 3.35852L48.9329 3.26477C48.7945 2.74902 49.0968 2.21915 49.6135 2.0802L55.7961 0.406372L55.8928 0.385864Z" fill="#D45B2C" stroke="#D45B2C" stroke-width="0.25"/>
<path d="M61.1611 51.5297C61.6966 51.5299 62.1248 51.9646 62.125 52.4935C62.125 53.0232 61.6908 53.4581 61.1611 53.4584H0.838867C0.303223 53.4581 -0.125 53.0227 -0.125 52.4935C-0.124753 51.964 0.309385 51.5299 0.838867 51.5297H61.1611Z" fill="#D45B2C" stroke="#D45B2C" stroke-width="0.25"/>
<path d="M7.94824 27.2552C10.1237 27.2552 11.8973 29.0281 11.8975 31.2035C11.8975 33.3791 10.1238 35.1527 7.94824 35.1527C5.77283 35.1525 4 33.3789 4 31.2035C4.00018 29.0282 5.77294 27.2554 7.94824 27.2552ZM7.94824 29.1898C6.83778 29.19 5.92871 30.0938 5.92871 31.2094C5.92874 32.3251 6.83252 33.2287 7.94824 33.2289C9.06411 33.2289 9.96873 32.3252 9.96875 31.2094C9.96875 30.0935 9.06413 29.1898 7.94824 29.1898Z" fill="#D45B2C" stroke="#D45B2C" stroke-width="0.25"/>
<path d="M23.3137 15.6913C25.4892 15.6913 27.2628 17.4641 27.2629 19.6395C27.2629 21.8151 25.4893 23.5887 23.3137 23.5887C21.1383 23.5886 19.3655 21.815 19.3655 19.6395C19.3657 17.4642 21.1384 15.6915 23.3137 15.6913ZM23.3137 17.62C22.2034 17.6202 21.2944 18.5241 21.2942 19.6395C21.2942 20.7553 22.198 21.6599 23.3137 21.66C24.4296 21.66 25.3342 20.7554 25.3342 19.6395C25.3341 18.5238 24.4295 17.62 23.3137 17.62Z" fill="#D45B2C" stroke="#D45B2C" stroke-width="0.25"/>
<path d="M38.6857 26.1471C40.8611 26.1471 42.6347 27.9199 42.6349 30.0953C42.6349 32.2709 40.8612 34.0446 38.6857 34.0446C36.5103 34.0444 34.7374 32.2708 34.7374 30.0953C34.7376 27.92 36.5104 26.1473 38.6857 26.1471ZM38.6857 28.0758C37.5753 28.076 36.6663 28.9799 36.6661 30.0953C36.6661 31.2111 37.5699 32.1157 38.6857 32.1158C39.8016 32.1158 40.7062 31.2112 40.7062 30.0953C40.706 28.9796 39.8014 28.0758 38.6857 28.0758Z" fill="#D45B2C" stroke="#D45B2C" stroke-width="0.25"/>
</g>
<defs>
<clipPath id="clip0_370_2853">
<rect width="62" height="52.8333" fill="white" transform="translate(0 0.5)"/>
</clipPath>
</defs>
</svg>
