<svg width="51" height="51" viewBox="0 0 51 51" fill="none" xmlns="http://www.w3.org/2000/svg">
<g clip-path="url(#clip0_370_2837)">
<path d="M25.4078 16.0924L25.7643 16.1041C29.1523 16.2891 30.8682 18.5676 31.4069 20.0133L31.5016 20.2994V20.3004L31.5231 20.3912C31.6037 20.8463 31.3286 21.2993 30.8766 21.4332L30.8737 21.4342C30.3947 21.57 29.8876 21.3001 29.7467 20.816L29.692 20.6627C29.4595 20.0658 28.4288 17.9626 25.3903 17.9293H25.3893C23.884 17.9098 22.763 18.1685 22.0221 18.6559C21.3412 19.1038 20.9609 19.7577 20.9059 20.6315L20.899 20.8092C20.8907 21.5656 21.0681 22.1399 21.4303 22.5846C21.7956 23.033 22.3724 23.3779 23.2155 23.6276L26.3365 24.5543C26.7639 24.6815 27.1208 24.7875 27.3707 24.8619C27.4954 24.8991 27.5937 24.9279 27.6608 24.9479C27.6943 24.9579 27.7206 24.9662 27.7379 24.9713C27.7465 24.9739 27.7531 24.9759 27.7574 24.9772L27.7623 24.9781C27.8452 25.0019 28.6853 25.2561 29.5494 25.9381C30.4214 26.6264 31.3224 27.7553 31.484 29.5153L31.5016 29.776C31.6262 32.4225 29.8425 33.8937 28.8131 34.3219L28.8121 34.3209C28.5089 34.468 26.9758 35.1592 25.0494 35.1637H24.901L24.8942 35.151C23.0671 35.1165 20.9137 34.444 19.1442 32.1364L19.1432 32.1373C18.8318 31.7355 18.9118 31.1629 19.3092 30.8541L19.3864 30.7994C19.781 30.5533 20.3079 30.6449 20.5944 31.0201L20.8795 31.3707C22.3229 33.0337 23.9935 33.4066 25.3561 33.3453C26.8221 33.2793 27.9357 32.7083 28.0153 32.6666L28.026 32.6608L28.0348 32.6578L28.0504 32.65C28.0595 32.6455 28.0762 32.6398 28.0973 32.6324V32.6305H28.0983C28.0993 32.63 28.1013 32.6293 28.1031 32.6285C28.1073 32.6267 28.1134 32.6232 28.1207 32.6198C28.1354 32.6129 28.1566 32.6037 28.1823 32.5905C28.2335 32.5639 28.3042 32.5242 28.3873 32.4703C28.5542 32.3623 28.7686 32.1977 28.9742 31.9664C29.3557 31.5373 29.7152 30.8704 29.6754 29.8776L29.6617 29.6744C29.4585 27.4344 27.3791 26.7673 27.2467 26.7252H27.2457C27.2446 26.7249 27.2429 26.7239 27.2408 26.7233C27.2364 26.7219 27.2299 26.72 27.2213 26.7174C27.2041 26.7122 27.1784 26.7049 27.1451 26.6949C27.078 26.6749 26.9792 26.6454 26.8541 26.608C26.6039 26.5333 26.2466 26.4268 25.819 26.2994L22.6998 25.3737C21.5083 25.0203 20.5903 24.4602 19.9742 23.6832C19.3567 22.9043 19.0595 21.9294 19.0709 20.7819L19.0826 20.4977C19.1305 19.7873 19.3504 18.7744 20.1139 17.8951C20.9922 16.8837 22.5507 16.0925 25.2555 16.0924H25.4078Z" fill="#D45B2C" stroke="#D45B2C" stroke-width="0.480952"/>
<path d="M25.3979 12.5081C25.9006 12.5081 26.312 12.9195 26.312 13.4221V17.0149C26.312 17.5229 25.8995 17.9289 25.3979 17.929C24.8898 17.929 24.4839 17.5165 24.4839 17.0149V13.4221C24.4839 12.914 24.8963 12.5081 25.3979 12.5081Z" fill="#D45B2C" stroke="#D45B2C" stroke-width="0.480952"/>
<path d="M25.3979 33.5734C25.9006 33.5734 26.312 33.9848 26.312 34.4874V38.0802C26.312 38.5883 25.8995 38.9942 25.3979 38.9943C24.8898 38.9943 24.4839 38.5819 24.4839 38.0802V34.4874C24.4839 33.9793 24.8963 33.5734 25.3979 33.5734Z" fill="#D45B2C" stroke="#D45B2C" stroke-width="0.480952"/>
<path d="M25.2495 4.3999C37.0194 4.3999 46.597 13.9776 46.5971 25.7476C46.5971 37.5176 37.0195 47.0952 25.2495 47.0952C13.4795 47.0951 3.90179 37.5175 3.90179 25.7476C3.90188 13.9776 13.4795 4.39999 25.2495 4.3999ZM25.2495 5.9917C14.3564 5.99179 5.49359 14.855 5.49359 25.7524C5.49377 36.6498 14.3566 45.5121 25.2495 45.5122C36.1425 45.5122 45.009 36.6498 45.0092 25.7524C45.0092 14.8549 36.1469 5.9917 25.2495 5.9917Z" fill="#D45B2C" stroke="#D45B2C" stroke-width="0.240476"/>
<path d="M25.248 0.379883C39.2372 0.380017 50.6162 11.7589 50.6162 25.748C50.6161 39.697 39.3022 51.0492 25.3682 51.1143V51.1201H25.248C11.2589 51.1201 -0.119982 39.7371 -0.120117 25.748C-0.120117 11.7588 11.2588 0.379883 25.248 0.379883ZM25.248 1.96777C12.1358 1.96777 1.47168 12.6357 1.47168 25.748C1.47182 38.8601 12.1399 49.5282 25.252 49.5283C38.3642 49.5283 49.0321 38.8602 49.0322 25.748C49.0322 12.6359 38.3603 1.96791 25.248 1.96777Z" fill="#D45B2C" stroke="#D45B2C" stroke-width="0.240476"/>
</g>
<defs>
<clipPath id="clip0_370_2837">
<rect width="50.5" height="50.5" fill="white" transform="translate(0 0.5)"/>
</clipPath>
</defs>
</svg>
