<svg width="211" height="48" viewBox="0 0 211 48" fill="none" xmlns="http://www.w3.org/2000/svg">
<g clip-path="url(#clip0_302_10930)">
<path d="M48.3516 0.892578H52.1448L60.9004 12.6275V0.892578H64.9534V19.953H61.4546L52.4133 7.83809V19.953H48.3602V0.892578H48.3516Z" fill="white"/>
<path d="M68.1484 15.7647V15.7117C68.1484 12.5217 70.5214 11.0549 73.9075 11.0549C75.3452 11.0549 76.3931 11.3023 77.4063 11.6557V11.4083C77.4063 9.69403 76.3671 8.73969 74.3406 8.73969C72.7904 8.73969 71.6992 9.04013 70.3915 9.52614L69.3782 6.3715C70.9544 5.66458 72.4959 5.20508 74.9295 5.20508C77.1465 5.20508 78.7487 5.80596 79.7619 6.83983C80.8271 7.92673 81.3121 9.53498 81.3121 11.4967V19.9621H77.389V18.3803C76.4017 19.4937 75.0421 20.236 73.0675 20.236C70.3741 20.236 68.1571 18.6543 68.1571 15.7736L68.1484 15.7647ZM77.4583 14.8104V14.0769C76.7655 13.75 75.8561 13.5291 74.8688 13.5291C73.1368 13.5291 72.0629 14.236 72.0629 15.5438V15.5968C72.0629 16.7102 72.9722 17.3641 74.2799 17.3641C76.1765 17.3641 77.4583 16.3038 77.4583 14.8015V14.8104Z" fill="white"/>
<path d="M85.3311 15.8174V8.89839H83.625V5.36378H85.3311V1.63477H89.3841V5.36378H92.7443V8.89839H89.3841V15.137C89.3841 16.0913 89.7825 16.5508 90.6918 16.5508C91.4366 16.5508 92.1035 16.3564 92.6924 16.0383V19.3608C91.835 19.8822 90.8477 20.2091 89.488 20.2091C87.0025 20.2091 85.3224 19.2018 85.3224 15.8262L85.3311 15.8174Z" fill="white"/>
<path d="M95.8086 0.0800781H100.078V3.75607H95.8086V0.0800781ZM95.9212 5.36432H99.9742V19.9534H95.9212V5.36432Z" fill="white"/>
<path d="M103.094 12.7433V12.6902C103.094 8.49288 106.402 5.09082 110.862 5.09082C115.322 5.09082 118.57 8.43986 118.57 12.6284V12.6814C118.57 16.8699 115.261 20.2808 110.801 20.2808C106.341 20.2808 103.094 16.9318 103.094 12.7433ZM114.569 12.7433V12.6902C114.569 10.543 113.044 8.66078 110.81 8.66078C108.576 8.66078 107.103 10.4899 107.103 12.6372V12.6902C107.103 14.8375 108.628 16.7197 110.862 16.7197C113.096 16.7197 114.569 14.8994 114.569 12.7433Z" fill="white"/>
<path d="M121.504 5.36475H125.557V7.4325C126.492 6.20422 127.696 5.09082 129.749 5.09082C132.814 5.09082 134.607 7.15857 134.607 10.5076V19.9539H130.554V11.8154C130.554 9.85371 129.645 8.84634 128.094 8.84634C126.544 8.84634 125.557 9.85371 125.557 11.8154V19.9539H121.504V5.36475Z" fill="white"/>
<path d="M137.266 15.7647V15.7117C137.266 12.5217 139.639 11.0549 143.025 11.0549C144.462 11.0549 145.51 11.3023 146.524 11.6557V11.4083C146.524 9.69403 145.484 8.73969 143.458 8.73969C141.908 8.73969 140.816 9.04013 139.509 9.52614L138.495 6.3715C140.072 5.66458 141.613 5.20508 144.047 5.20508C146.264 5.20508 147.866 5.80596 148.879 6.83983C149.944 7.92673 150.429 9.53498 150.429 11.4967V19.9621H146.506V18.3803C145.519 19.4937 144.159 20.236 142.185 20.236C139.491 20.236 137.274 18.6543 137.274 15.7736L137.266 15.7647ZM146.584 14.8104V14.0769C145.891 13.75 144.982 13.5291 143.995 13.5291C142.263 13.5291 141.197 14.236 141.197 15.5438V15.5968C141.197 16.7102 142.107 17.3641 143.414 17.3641C145.311 17.3641 146.593 16.3038 146.593 14.8015L146.584 14.8104Z" fill="white"/>
<path d="M154.102 0.0800781H158.155V19.9534H154.102V0.0800781Z" fill="white"/>
<path d="M48.3524 24.5303H62.5727V28.3389H52.4574V32.3948H61.3689V36.2034H52.4574V43.5819H48.3438V24.5215L48.3524 24.5303Z" fill="#F88D2A"/>
<path d="M65.6289 38.4482V29.002H69.6819V37.1404C69.6819 39.1021 70.5913 40.1095 72.1415 40.1095C73.6917 40.1095 74.6789 39.1021 74.6789 37.1404V29.002H78.732V43.5911H74.6789V41.5233C73.7436 42.7516 72.5398 43.865 70.4873 43.865C67.4216 43.865 65.6289 41.7972 65.6289 38.4482Z" fill="#F88D2A"/>
<path d="M82.707 29.0015H86.7601V31.0692C87.6954 29.8409 88.8992 28.7275 90.9517 28.7275C94.0174 28.7275 95.8101 30.7953 95.8101 34.1443V43.5906H91.7571V35.4521C91.7571 33.4904 90.8477 32.4831 89.2975 32.4831C87.7473 32.4831 86.7601 33.4904 86.7601 35.4521V43.5906H82.707V29.0015Z" fill="#F88D2A"/>
<path d="M99.0469 36.3265V36.2735C99.0469 31.3957 102.165 28.7359 105.559 28.7359C107.725 28.7359 109.058 29.7433 110.011 30.9097V23.7256H114.064V43.5989H110.011V41.5047C109.024 42.8655 107.664 43.8729 105.559 43.8729C102.225 43.8729 99.0469 41.2042 99.0469 36.3353V36.3265ZM110.071 36.3265V36.2735C110.071 33.8522 108.495 32.244 106.599 32.244C104.702 32.244 103.1 33.8257 103.1 36.2735V36.3265C103.1 38.7477 104.702 40.3559 106.599 40.3559C108.495 40.3559 110.071 38.7477 110.071 36.3265Z" fill="#F88D2A"/>
<path d="M118.422 23.7178H122.691V27.3938H118.422V23.7178ZM118.526 29.002H122.579V43.5911H118.526V29.002Z" fill="#F88D2A"/>
<path d="M126.754 29.0015H130.807V31.0692C131.742 29.8409 132.946 28.7275 134.999 28.7275C138.064 28.7275 139.857 30.7953 139.857 34.1443V43.5906H135.804V35.4521C135.804 33.4904 134.895 32.4831 133.344 32.4831C131.794 32.4831 130.807 33.4904 130.807 35.4521V43.5906H126.754V29.0015Z" fill="#F88D2A"/>
<path d="M143.891 46.4801L145.276 43.3784C146.74 44.2268 148.212 44.7128 150.109 44.7128C152.88 44.7128 154.188 43.3519 154.188 40.7363V40.0294C152.984 41.4963 151.676 42.3976 149.52 42.3976C146.186 42.3976 143.172 39.9234 143.172 35.5935V35.5405C143.172 31.184 146.238 28.7363 149.52 28.7363C151.737 28.7363 153.045 29.6907 154.136 30.9101V29.0014H158.189V40.3033C158.189 42.919 157.574 44.8188 156.37 46.0471C155.037 47.4079 152.984 48.0088 150.204 48.0088C147.883 48.0088 145.692 47.4609 143.882 46.4801H143.891ZM154.188 35.5846V35.5316C154.188 33.5434 152.664 32.1561 150.689 32.1561C148.714 32.1561 147.216 33.5434 147.216 35.5316V35.5846C147.216 37.5994 148.714 38.9602 150.689 38.9602C152.664 38.9602 154.188 37.5729 154.188 35.5846Z" fill="#F88D2A"/>
<path d="M34.546 22.8159L39.0494 29.8056V39.8439H29.2113L22.4042 35.2754L34.5287 35.2224L34.546 22.8247V22.8159ZM42.7214 0L38.5557 22.215L26.3707 3.32253L30.8567 25.4757L12.5142 12.7688L24.959 31.4845L3.24762 26.9072L21.7634 39.3402L0 43.5906H42.7214V0Z" fill="#F88D2A"/>
<path d="M0.865881 38.5447H0.121094V38.0322H2.16493V38.5447H1.41148V40.5506H0.865881V38.5447Z" fill="#F88D2A"/>
<path d="M2.58203 38.041H3.16227L3.8118 39.1014L4.46132 38.041H5.05022V40.5506H4.51328V38.907L3.82046 39.9851H3.80314L3.11897 38.9247V40.5594H2.59069V38.0499L2.58203 38.041Z" fill="#F88D2A"/>
</g>
<defs>
<clipPath id="clip0_302_10930">
<rect width="211" height="48" fill="white"/>
</clipPath>
</defs>
</svg>
