<svg width="249" height="29" viewBox="0 0 249 29" fill="none" xmlns="http://www.w3.org/2000/svg">
<path d="M0.286687 0.958893C0.0369359 0.841084 -0.0700236 0.543118 0.047786 0.293365C0.165596 0.0436153 0.463562 -0.063345 0.713313 0.0544662L0.5 0.50668L0.286687 0.958893ZM248.5 0.50668L245.186 5.23407L242.749 4.3869e-05L248.5 0.50668ZM0.5 0.50668L0.713313 0.0544662C1.58898 0.467524 2.46704 0.876335 3.34747 1.28087L3.13871 1.73521L2.92995 2.18954C2.04648 1.78361 1.16538 1.37338 0.286687 0.958893L0.5 0.50668ZM8.45319 4.11266L8.65277 3.65421C10.4276 4.42686 12.2116 5.18229 14.0047 5.9203L13.8144 6.38266L13.6241 6.84503C11.8248 6.10447 10.0346 5.34642 8.25362 4.5711L8.45319 4.11266ZM19.2203 8.54429L19.4013 8.07819C21.2055 8.77865 23.0185 9.4616 24.84 10.1268L24.6685 10.5965L24.497 11.0662C22.6692 10.3986 20.8499 9.71329 19.0394 9.0104L19.2203 8.54429ZM30.1573 12.5386L30.3193 12.0656C32.15 12.6926 33.989 13.3019 35.8361 13.8933L35.6836 14.3695L35.5312 14.8457C33.6777 14.2523 31.8323 13.6409 29.9952 13.0116L30.1573 12.5386ZM41.2464 16.0887L41.3892 15.6095C43.2435 16.1622 45.1055 16.6968 46.975 17.2133L46.8419 17.6952L46.7088 18.1772C44.8327 17.659 42.9643 17.1225 41.1036 16.5679L41.2464 16.0887ZM52.4697 19.1889L52.5931 18.7043C54.4678 19.1817 56.3498 19.6408 58.2388 20.0815L58.1252 20.5685L58.0116 21.0554C56.116 20.6131 54.2275 20.1524 52.3464 19.6734L52.4697 19.1889ZM63.8089 21.8342L63.9127 21.3451C65.8047 21.7465 67.7035 22.1295 69.609 22.4939L69.5151 22.985L69.4212 23.4761C67.5091 23.1105 65.6037 22.7261 63.7051 22.3233L63.8089 21.8342ZM75.2448 24.0212L75.3288 23.5283C77.2353 23.8533 79.1481 24.1597 81.0671 24.4474L80.993 24.9419L80.9188 25.4364C78.9933 25.1477 77.0738 24.8402 75.1608 24.514L75.2448 24.0212ZM86.7592 25.7474L86.8234 25.2515C88.7413 25.4999 90.6651 25.7296 92.5945 25.9403L92.5402 26.4374L92.4859 26.9344C90.5499 26.7229 88.6195 26.4925 86.695 26.2432L86.7592 25.7474ZM98.3335 27.0119L98.3778 26.5138C100.304 26.6855 102.236 26.8384 104.173 26.9723L104.138 27.4711L104.104 27.9699C102.16 27.8355 100.222 27.6822 98.2891 27.5099L98.3335 27.0119ZM109.949 27.8149L109.974 27.3155C111.905 27.4106 113.841 27.4869 115.782 27.5441L115.767 28.0438L115.753 28.5436C113.805 28.4862 111.862 28.4097 109.924 28.3143L109.949 27.8149ZM121.588 28.1581L121.593 27.6581C122.561 27.6676 123.53 27.6724 124.5 27.6724V28.1724V28.6724C123.526 28.6724 122.554 28.6676 121.583 28.6581L121.588 28.1581ZM124.5 28.1724V27.6724C125.47 27.6724 126.439 27.6676 127.408 27.6581L127.412 28.1581L127.417 28.6581C126.446 28.6676 125.474 28.6724 124.5 28.6724V28.1724ZM133.233 28.0438L133.218 27.5441C135.159 27.4869 137.095 27.4106 139.026 27.3155L139.051 27.8149L139.076 28.3143C137.138 28.4097 135.195 28.4862 133.247 28.5436L133.233 28.0438ZM144.862 27.4711L144.827 26.9723C146.764 26.8384 148.696 26.6855 150.622 26.5138L150.667 27.0119L150.711 27.5099C148.778 27.6822 146.84 27.8355 144.896 27.9699L144.862 27.4711ZM156.46 26.4374L156.406 25.9403C158.335 25.7296 160.259 25.4999 162.177 25.2515L162.241 25.7474L162.305 26.2432C160.381 26.4925 158.45 26.7229 156.514 26.9344L156.46 26.4374ZM168.007 24.9419L167.933 24.4474C169.852 24.1597 171.765 23.8533 173.671 23.5283L173.755 24.0212L173.839 24.514C171.926 24.8402 170.007 25.1477 168.081 25.4364L168.007 24.9419ZM179.485 22.985L179.391 22.4939C181.296 22.1295 183.195 21.7465 185.087 21.3451L185.191 21.8342L185.295 22.3233C183.396 22.7261 181.491 23.1105 179.579 23.4761L179.485 22.985ZM190.875 20.5685L190.761 20.0815C192.65 19.6408 194.532 19.1817 196.407 18.7043L196.53 19.1889L196.654 19.6734C194.772 20.1524 192.884 20.6131 190.988 21.0554L190.875 20.5685ZM202.158 17.6952L202.025 17.2133C203.895 16.6968 205.757 16.1622 207.611 15.6095L207.754 16.0887L207.896 16.5679C206.036 17.1225 204.167 17.659 202.291 18.1772L202.158 17.6952ZM213.316 14.3695L213.164 13.8933C215.011 13.3019 216.85 12.6926 218.681 12.0656L218.843 12.5386L219.005 13.0116C217.168 13.6409 215.322 14.2523 213.469 14.8457L213.316 14.3695ZM224.331 10.5965L224.16 10.1268C225.981 9.4616 227.794 8.77864 229.599 8.07818L229.78 8.54428L229.961 9.01039C228.15 9.71328 226.331 10.3986 224.503 11.0662L224.331 10.5965ZM235.186 6.38265L234.995 5.92029C236.788 5.18228 238.572 4.42685 240.347 3.65421L240.547 4.11265L240.746 4.57109C238.965 5.34641 237.175 6.10446 235.376 6.84502L235.186 6.38265ZM0.286687 0.958893C0.0369359 0.841084 -0.0700236 0.543118 0.047786 0.293365C0.165596 0.0436153 0.463562 -0.063345 0.713313 0.0544662L0.5 0.50668L0.286687 0.958893ZM248.5 0.50668L245.186 5.23407L242.749 4.3869e-05L248.5 0.50668ZM0.5 0.50668L0.713313 0.0544662C1.58898 0.467524 2.46704 0.876335 3.34747 1.28087L3.13871 1.73521L2.92995 2.18954C2.04648 1.78361 1.16538 1.37338 0.286687 0.958893L0.5 0.50668ZM8.45319 4.11266L8.65277 3.65421C10.4276 4.42686 12.2116 5.18229 14.0047 5.9203L13.8144 6.38266L13.6241 6.84503C11.8248 6.10447 10.0346 5.34642 8.25362 4.5711L8.45319 4.11266ZM19.2203 8.54429L19.4013 8.07819C21.2055 8.77865 23.0185 9.4616 24.84 10.1268L24.6685 10.5965L24.497 11.0662C22.6692 10.3986 20.8499 9.71329 19.0394 9.0104L19.2203 8.54429ZM30.1573 12.5386L30.3193 12.0656C32.15 12.6926 33.989 13.3019 35.8361 13.8933L35.6836 14.3695L35.5312 14.8457C33.6777 14.2523 31.8323 13.6409 29.9952 13.0116L30.1573 12.5386ZM41.2464 16.0887L41.3892 15.6095C43.2435 16.1622 45.1055 16.6968 46.975 17.2133L46.8419 17.6952L46.7088 18.1772C44.8327 17.659 42.9643 17.1225 41.1036 16.5679L41.2464 16.0887ZM52.4697 19.1889L52.5931 18.7043C54.4678 19.1817 56.3498 19.6408 58.2388 20.0815L58.1252 20.5685L58.0116 21.0554C56.116 20.6131 54.2275 20.1524 52.3464 19.6734L52.4697 19.1889ZM63.8089 21.8342L63.9127 21.3451C65.8047 21.7465 67.7035 22.1295 69.609 22.4939L69.5151 22.985L69.4212 23.4761C67.5091 23.1105 65.6037 22.7261 63.7051 22.3233L63.8089 21.8342ZM75.2448 24.0212L75.3288 23.5283C77.2353 23.8533 79.1481 24.1597 81.0671 24.4474L80.993 24.9419L80.9188 25.4364C78.9933 25.1477 77.0738 24.8402 75.1608 24.514L75.2448 24.0212ZM86.7592 25.7474L86.8234 25.2515C88.7413 25.4999 90.6651 25.7296 92.5945 25.9403L92.5402 26.4374L92.4859 26.9344C90.5499 26.7229 88.6195 26.4925 86.695 26.2432L86.7592 25.7474ZM98.3335 27.0119L98.3778 26.5138C100.304 26.6855 102.236 26.8384 104.173 26.9723L104.138 27.4711L104.104 27.9699C102.16 27.8355 100.222 27.6822 98.2891 27.5099L98.3335 27.0119ZM109.949 27.8149L109.974 27.3155C111.905 27.4106 113.841 27.4869 115.782 27.5441L115.767 28.0438L115.753 28.5436C113.805 28.4862 111.862 28.4097 109.924 28.3143L109.949 27.8149ZM121.588 28.1581L121.593 27.6581C122.561 27.6676 123.53 27.6724 124.5 27.6724V28.1724V28.6724C123.526 28.6724 122.554 28.6676 121.583 28.6581L121.588 28.1581ZM124.5 28.1724V27.6724C125.47 27.6724 126.439 27.6676 127.408 27.6581L127.412 28.1581L127.417 28.6581C126.446 28.6676 125.474 28.6724 124.5 28.6724V28.1724ZM133.233 28.0438L133.218 27.5441C135.159 27.4869 137.095 27.4106 139.026 27.3155L139.051 27.8149L139.076 28.3143C137.138 28.4097 135.195 28.4862 133.247 28.5436L133.233 28.0438ZM144.862 27.4711L144.827 26.9723C146.764 26.8384 148.696 26.6855 150.622 26.5138L150.667 27.0119L150.711 27.5099C148.778 27.6822 146.84 27.8355 144.896 27.9699L144.862 27.4711ZM156.46 26.4374L156.406 25.9403C158.335 25.7296 160.259 25.4999 162.177 25.2515L162.241 25.7474L162.305 26.2432C160.381 26.4925 158.45 26.7229 156.514 26.9344L156.46 26.4374ZM168.007 24.9419L167.933 24.4474C169.852 24.1597 171.765 23.8533 173.671 23.5283L173.755 24.0212L173.839 24.514C171.926 24.8402 170.007 25.1477 168.081 25.4364L168.007 24.9419ZM179.485 22.985L179.391 22.4939C181.296 22.1295 183.195 21.7465 185.087 21.3451L185.191 21.8342L185.295 22.3233C183.396 22.7261 181.491 23.1105 179.579 23.4761L179.485 22.985ZM190.875 20.5685L190.761 20.0815C192.65 19.6408 194.532 19.1817 196.407 18.7043L196.53 19.1889L196.654 19.6734C194.772 20.1524 192.884 20.6131 190.988 21.0554L190.875 20.5685ZM202.158 17.6952L202.025 17.2133C203.895 16.6968 205.757 16.1622 207.611 15.6095L207.754 16.0887L207.896 16.5679C206.036 17.1225 204.167 17.659 202.291 18.1772L202.158 17.6952ZM213.316 14.3695L213.164 13.8933C215.011 13.3019 216.85 12.6926 218.681 12.0656L218.843 12.5386L219.005 13.0116C217.168 13.6409 215.322 14.2523 213.469 14.8457L213.316 14.3695ZM224.331 10.5965L224.16 10.1268C225.981 9.4616 227.794 8.77864 229.599 8.07818L229.78 8.54428L229.961 9.01039C228.15 9.71328 226.331 10.3986 224.503 11.0662L224.331 10.5965ZM235.186 6.38265L234.995 5.92029C236.788 5.18228 238.572 4.42685 240.347 3.65421L240.547 4.11265L240.746 4.57109C238.965 5.34641 237.175 6.10446 235.376 6.84502L235.186 6.38265Z" fill="#AFAFAF"/>
</svg>
