<svg width="249" height="29" viewBox="0 0 249 29" fill="none" xmlns="http://www.w3.org/2000/svg">
<path d="M0.286687 27.7135C0.0369359 27.8313 -0.0700236 28.1292 0.047786 28.379C0.165596 28.6287 0.463562 28.7357 0.713313 28.6179L0.5 28.1657L0.286687 27.7135ZM248.5 28.1657L245.186 23.4383L242.749 28.6723L248.5 28.1657ZM0.5 28.1657L0.713313 28.6179C1.58898 28.2048 2.46704 27.796 3.34747 27.3915L3.13871 26.9372L2.92995 26.4828C2.04648 26.8888 1.16538 27.299 0.286687 27.7135L0.5 28.1657ZM8.45319 24.5597L8.65277 25.0181C10.4276 24.2455 12.2116 23.4901 14.0047 22.7521L13.8144 22.2897L13.6241 21.8273C11.8248 22.5679 10.0346 23.3259 8.25362 24.1013L8.45319 24.5597ZM19.2203 20.1281L19.4013 20.5942C21.2055 19.8937 23.0185 19.2108 24.84 18.5455L24.6685 18.0759L24.497 17.6062C22.6692 18.2738 20.8499 18.9591 19.0394 19.662L19.2203 20.1281ZM30.1573 16.1338L30.3193 16.6068C32.15 15.9797 33.989 15.3704 35.8361 14.7791L35.6836 14.3029L35.5312 13.8267C33.6777 14.4201 31.8323 15.0315 29.9952 15.6608L30.1573 16.1338ZM41.2464 12.5837L41.3892 13.0628C43.2435 12.5102 45.1055 11.9755 46.975 11.4591L46.8419 10.9771L46.7088 10.4952C44.8327 11.0134 42.9643 11.5499 41.1036 12.1045L41.2464 12.5837ZM52.4697 9.48351L52.5931 9.96805C54.4678 9.49068 56.3498 9.03154 58.2388 8.59083L58.1252 8.10391L58.0116 7.61698C56.116 8.05922 54.2275 8.51995 52.3464 8.99897L52.4697 9.48351ZM63.8089 6.83813L63.9127 7.32725C65.8047 6.92583 67.7035 6.54283 69.609 6.17845L69.5151 5.68735L69.4212 5.19625C67.5091 5.56189 65.6037 5.94621 63.7051 6.34902L63.8089 6.83813ZM75.2448 4.65121L75.3288 5.1441C77.2353 4.81907 79.1481 4.51262 81.0671 4.22494L80.993 3.73047L80.9188 3.23599C78.9933 3.52466 77.0738 3.83217 75.1608 4.15832L75.2448 4.65121ZM86.7592 2.92498L86.8234 3.42084C88.7413 3.17246 90.6651 2.9428 92.5945 2.73202L92.5402 2.23498L92.4859 1.73794C90.5499 1.94943 88.6195 2.17989 86.695 2.42912L86.7592 2.92498ZM98.3335 1.66049L98.3778 2.15852C100.304 1.98685 102.236 1.83398 104.173 1.7001L104.138 1.20129L104.104 0.702483C102.16 0.83682 100.222 0.990209 98.2891 1.16247L98.3335 1.66049ZM109.949 0.857469L109.974 1.35686C111.905 1.26176 113.841 1.18551 115.782 1.1283L115.767 0.628521L115.753 0.128738C113.805 0.186139 111.862 0.262644 109.924 0.358074L109.949 0.857469ZM121.588 0.514272L121.593 1.01425C122.561 1.00476 123.53 1 124.5 1V0.5V0C123.526 0 122.554 0.00477275 121.583 0.0142962L121.588 0.514272ZM124.5 0.5V1C125.47 1 126.439 1.00476 127.408 1.01425L127.412 0.514272L127.417 0.0142965C126.446 0.00477287 125.474 0 124.5 0V0.5ZM133.233 0.628522L133.218 1.1283C135.159 1.18551 137.095 1.26176 139.026 1.35687L139.051 0.85747L139.076 0.358076C137.138 0.262645 135.195 0.18614 133.247 0.128739L133.233 0.628522ZM144.862 1.20129L144.827 1.7001C146.764 1.83398 148.696 1.98685 150.622 2.15852L150.667 1.66049L150.711 1.16247C148.778 0.990211 146.84 0.836822 144.896 0.702485L144.862 1.20129ZM156.46 2.23498L156.406 2.73202C158.335 2.9428 160.259 3.17247 162.177 3.42084L162.241 2.92498L162.305 2.42912C160.381 2.17989 158.45 1.94944 156.514 1.73794L156.46 2.23498ZM168.007 3.73047L167.933 4.22494C169.852 4.51262 171.765 4.81907 173.671 5.1441L173.755 4.65121L173.839 4.15832C171.926 3.83217 170.007 3.52467 168.081 3.236L168.007 3.73047ZM179.485 5.68735L179.391 6.17845C181.296 6.54284 183.195 6.92583 185.087 7.32725L185.191 6.83813L185.295 6.34902C183.396 5.94622 181.491 5.5619 179.579 5.19625L179.485 5.68735ZM190.875 8.10391L190.761 8.59083C192.65 9.03154 194.532 9.49068 196.407 9.96805L196.53 9.48351L196.654 8.99897C194.772 8.51995 192.884 8.05922 190.988 7.61698L190.875 8.10391ZM202.158 10.9772L202.025 11.4591C203.895 11.9755 205.757 12.5102 207.611 13.0628L207.754 12.5837L207.896 12.1045C206.036 11.5499 204.167 11.0134 202.291 10.4952L202.158 10.9772ZM213.316 14.3029L213.164 14.7791C215.011 15.3704 216.85 15.9797 218.681 16.6068L218.843 16.1338L219.005 15.6608C217.168 15.0315 215.322 14.4201 213.469 13.8267L213.316 14.3029ZM224.331 18.0759L224.16 18.5455C225.981 19.2108 227.794 19.8937 229.599 20.5942L229.78 20.1281L229.961 19.662C228.15 18.9591 226.331 18.2738 224.503 17.6062L224.331 18.0759ZM235.186 22.2897L234.995 22.7521C236.788 23.4901 238.572 24.2455 240.347 25.0182L240.547 24.5597L240.746 24.1013C238.965 23.326 237.175 22.5679 235.376 21.8273L235.186 22.2897ZM0.286687 27.7135C0.0369359 27.8313 -0.0700236 28.1292 0.047786 28.379C0.165596 28.6287 0.463562 28.7357 0.713313 28.6179L0.5 28.1657L0.286687 27.7135ZM248.5 28.1657L245.186 23.4383L242.749 28.6723L248.5 28.1657ZM0.5 28.1657L0.713313 28.6179C1.58898 28.2048 2.46704 27.796 3.34747 27.3915L3.13871 26.9372L2.92995 26.4828C2.04648 26.8888 1.16538 27.299 0.286687 27.7135L0.5 28.1657ZM8.45319 24.5597L8.65277 25.0181C10.4276 24.2455 12.2116 23.4901 14.0047 22.7521L13.8144 22.2897L13.6241 21.8273C11.8248 22.5679 10.0346 23.3259 8.25362 24.1013L8.45319 24.5597ZM19.2203 20.1281L19.4013 20.5942C21.2055 19.8937 23.0185 19.2108 24.84 18.5455L24.6685 18.0759L24.497 17.6062C22.6692 18.2738 20.8499 18.9591 19.0394 19.662L19.2203 20.1281ZM30.1573 16.1338L30.3193 16.6068C32.15 15.9797 33.989 15.3704 35.8361 14.7791L35.6836 14.3029L35.5312 13.8267C33.6777 14.4201 31.8323 15.0315 29.9952 15.6608L30.1573 16.1338ZM41.2464 12.5837L41.3892 13.0628C43.2435 12.5102 45.1055 11.9755 46.975 11.4591L46.8419 10.9771L46.7088 10.4952C44.8327 11.0134 42.9643 11.5499 41.1036 12.1045L41.2464 12.5837ZM52.4697 9.48351L52.5931 9.96805C54.4678 9.49068 56.3498 9.03154 58.2388 8.59083L58.1252 8.10391L58.0116 7.61698C56.116 8.05922 54.2275 8.51995 52.3464 8.99897L52.4697 9.48351ZM63.8089 6.83813L63.9127 7.32725C65.8047 6.92583 67.7035 6.54283 69.609 6.17845L69.5151 5.68735L69.4212 5.19625C67.5091 5.56189 65.6037 5.94621 63.7051 6.34902L63.8089 6.83813ZM75.2448 4.65121L75.3288 5.1441C77.2353 4.81907 79.1481 4.51262 81.0671 4.22494L80.993 3.73047L80.9188 3.23599C78.9933 3.52466 77.0738 3.83217 75.1608 4.15832L75.2448 4.65121ZM86.7592 2.92498L86.8234 3.42084C88.7413 3.17246 90.6651 2.9428 92.5945 2.73202L92.5402 2.23498L92.4859 1.73794C90.5499 1.94943 88.6195 2.17989 86.695 2.42912L86.7592 2.92498ZM98.3335 1.66049L98.3778 2.15852C100.304 1.98685 102.236 1.83398 104.173 1.7001L104.138 1.20129L104.104 0.702483C102.16 0.83682 100.222 0.990209 98.2891 1.16247L98.3335 1.66049ZM109.949 0.857469L109.974 1.35686C111.905 1.26176 113.841 1.18551 115.782 1.1283L115.767 0.628521L115.753 0.128738C113.805 0.186139 111.862 0.262644 109.924 0.358074L109.949 0.857469ZM121.588 0.514272L121.593 1.01425C122.561 1.00476 123.53 1 124.5 1V0.5V0C123.526 0 122.554 0.00477275 121.583 0.0142962L121.588 0.514272ZM124.5 0.5V1C125.47 1 126.439 1.00476 127.408 1.01425L127.412 0.514272L127.417 0.0142965C126.446 0.00477287 125.474 0 124.5 0V0.5ZM133.233 0.628522L133.218 1.1283C135.159 1.18551 137.095 1.26176 139.026 1.35687L139.051 0.85747L139.076 0.358076C137.138 0.262645 135.195 0.18614 133.247 0.128739L133.233 0.628522ZM144.862 1.20129L144.827 1.7001C146.764 1.83398 148.696 1.98685 150.622 2.15852L150.667 1.66049L150.711 1.16247C148.778 0.990211 146.84 0.836822 144.896 0.702485L144.862 1.20129ZM156.46 2.23498L156.406 2.73202C158.335 2.9428 160.259 3.17247 162.177 3.42084L162.241 2.92498L162.305 2.42912C160.381 2.17989 158.45 1.94944 156.514 1.73794L156.46 2.23498ZM168.007 3.73047L167.933 4.22494C169.852 4.51262 171.765 4.81907 173.671 5.1441L173.755 4.65121L173.839 4.15832C171.926 3.83217 170.007 3.52467 168.081 3.236L168.007 3.73047ZM179.485 5.68735L179.391 6.17845C181.296 6.54284 183.195 6.92583 185.087 7.32725L185.191 6.83813L185.295 6.34902C183.396 5.94622 181.491 5.5619 179.579 5.19625L179.485 5.68735ZM190.875 8.10391L190.761 8.59083C192.65 9.03154 194.532 9.49068 196.407 9.96805L196.53 9.48351L196.654 8.99897C194.772 8.51995 192.884 8.05922 190.988 7.61698L190.875 8.10391ZM202.158 10.9772L202.025 11.4591C203.895 11.9755 205.757 12.5102 207.611 13.0628L207.754 12.5837L207.896 12.1045C206.036 11.5499 204.167 11.0134 202.291 10.4952L202.158 10.9772ZM213.316 14.3029L213.164 14.7791C215.011 15.3704 216.85 15.9797 218.681 16.6068L218.843 16.1338L219.005 15.6608C217.168 15.0315 215.322 14.4201 213.469 13.8267L213.316 14.3029ZM224.331 18.0759L224.16 18.5455C225.981 19.2108 227.794 19.8937 229.599 20.5942L229.78 20.1281L229.961 19.662C228.15 18.9591 226.331 18.2738 224.503 17.6062L224.331 18.0759ZM235.186 22.2897L234.995 22.7521C236.788 23.4901 238.572 24.2455 240.347 25.0182L240.547 24.5597L240.746 24.1013C238.965 23.326 237.175 22.5679 235.376 21.8273L235.186 22.2897Z" fill="#AFAFAF"/>
</svg>
