<svg width="12" height="117" viewBox="0 0 12 117" fill="none" xmlns="http://www.w3.org/2000/svg">
<path d="M5.77344 116.039L11.5469 106.039H-6.53267e-05L5.77344 116.039ZM5.77344 0L4.77344 0V1.00033L5.77344 1.00033L6.77344 1.00033V0L5.77344 0ZM5.77344 3.001H4.77344L4.77344 5.00167H5.77344H6.77344L6.77344 3.001H5.77344ZM5.77344 7.00234H4.77344V9.00301H5.77344H6.77344V7.00234H5.77344ZM5.77344 11.0037H4.77344V13.0043H5.77344H6.77344V11.0037H5.77344ZM5.77344 15.005H4.77344V17.0057H5.77344H6.77344V15.005H5.77344ZM5.77344 19.0064H4.77344V21.007H5.77344H6.77344L6.77344 19.0064H5.77344ZM5.77344 23.0077H4.77344V25.0084H5.77344H6.77344L6.77344 23.0077H5.77344ZM5.77344 27.009H4.77344V29.0097H5.77344H6.77344V27.009H5.77344ZM5.77344 31.0104H4.77344V33.011H5.77344H6.77344V31.0104H5.77344ZM5.77344 35.0117H4.77344V37.0124H5.77344H6.77344V35.0117H5.77344ZM5.77344 39.013H4.77344L4.77344 41.0137H5.77344H6.77344L6.77344 39.013H5.77344ZM5.77344 43.0144H4.77344V45.015H5.77344H6.77344V43.0144H5.77344ZM5.77344 47.0157H4.77344L4.77344 49.0164H5.77344H6.77344L6.77344 47.0157H5.77344ZM5.77344 51.017H4.77344V53.0177H5.77344H6.77344V51.017H5.77344ZM5.77344 55.0184H4.77344V57.0191H5.77344H6.77344V55.0184H5.77344ZM5.77344 59.0197H4.77344V61.0204H5.77344H6.77344V59.0197H5.77344ZM5.77344 63.0211H4.77344V65.0217H5.77344H6.77344L6.77344 63.0211H5.77344ZM5.77344 67.0224H4.77344V69.0231H5.77344H6.77344L6.77344 67.0224H5.77344ZM5.77344 71.0237H4.77344V73.0244H5.77344H6.77344V71.0237H5.77344ZM5.77344 75.0251H4.77344V77.0257H5.77344H6.77344V75.0251H5.77344ZM5.77344 79.0264H4.77344V81.0271H5.77344H6.77344V79.0264H5.77344ZM5.77344 83.0278H4.77344L4.77344 85.0284H5.77344H6.77344L6.77344 83.0278H5.77344ZM5.77344 87.0291H4.77344V89.0298H5.77344H6.77344V87.0291H5.77344ZM5.77344 91.0304H4.77344L4.77344 93.0311H5.77344H6.77344L6.77344 91.0304H5.77344ZM5.77344 95.0318H4.77344V97.0325H5.77344H6.77344V95.0318H5.77344ZM5.77344 99.0331H4.77344V101.034H5.77344H6.77344V99.0331H5.77344ZM5.77344 103.034H4.77344V105.035H5.77344H6.77344V103.034H5.77344ZM5.77344 107.036H4.77344V109.036H5.77344H6.77344V107.036H5.77344ZM5.77344 111.037H4.77344L4.77344 113.038H5.77344H6.77344L6.77344 111.037H5.77344Z" fill="#AFAFAF"/>
</svg>
