<svg width="44" height="39" viewBox="0 0 44 39" fill="none" xmlns="http://www.w3.org/2000/svg">
<path d="M21.9999 11.005C22.7349 11.0051 23.2759 11.2485 23.6151 11.7218C23.9557 12.197 24.0976 12.9112 24.0194 13.8624L22.9344 24.9835V24.9845C22.8909 25.5075 22.472 25.8947 21.9999 25.8947H21.9989C21.5557 25.8947 21.16 25.5545 21.077 25.0812L21.0653 24.9845V24.9835L19.9794 13.8624C19.9012 12.9112 20.0431 12.197 20.3837 11.7218C20.723 11.2484 21.2646 11.005 21.9999 11.005Z" fill="#D45B2C" stroke="#D45B2C" stroke-width="0.0749309"/>
<path d="M21.9564 27.845C23.0963 27.845 24.0207 28.7695 24.0209 29.9094C24.0209 31.0494 23.0964 31.9739 21.9564 31.9739C20.8165 31.9737 19.892 31.0493 19.892 29.9094C19.8921 28.7696 20.8166 27.8451 21.9564 27.845Z" fill="#D45B2C" stroke="#D45B2C" stroke-width="0.0749309"/>
<path d="M2.28997 33.4951L20.1445 2.57114C20.9695 1.14295 23.0308 1.14295 23.8558 2.57114L41.7096 33.4951C42.5346 34.9233 41.5036 36.7089 39.8536 36.7089H4.14601C2.49678 36.7089 1.46573 34.9233 2.28997 33.4951Z" stroke="#D45B2C" stroke-width="2.84737" stroke-miterlimit="10"/>
</svg>
