<svg width="38" height="50" viewBox="0 0 38 50" fill="none" xmlns="http://www.w3.org/2000/svg">
<mask id="path-1-outside-1_370_2828" maskUnits="userSpaceOnUse" x="0" y="0" width="38" height="50" fill="black">
<rect fill="white" width="38" height="50"/>
<path d="M35.5 18.25H21.7071C21.8968 17.5147 22 16.7624 22 16C22 11.0375 17.9625 7 13 7C8.03748 7 4 11.0375 4 16C4 16.7624 4.10323 17.5147 4.29288 18.25H2.5C1.67273 18.25 1 18.9227 1 19.75V22.75C1 23.5773 1.67273 24.25 2.5 24.25H3.25V26.9764C3.25 28.3105 3.75134 29.5828 4.66211 30.5583L13.5482 40.0798C13.6782 40.219 13.75 40.4006 13.75 40.5911V45.25C13.75 45.573 13.9565 45.8594 14.2627 45.9615L23.2627 48.9615C23.3403 48.9872 23.4202 49 23.5 49C23.6553 49 23.8091 48.9517 23.9384 48.8583C24.1343 48.7173 24.25 48.491 24.25 48.25V40.5911C24.25 40.4006 24.3218 40.219 24.4518 40.0795L33.3379 30.5583C34.2487 29.5828 34.75 28.3105 34.75 26.9764V24.25H35.5C36.3273 24.25 37 23.5773 37 22.75V19.75C37 18.9227 36.3273 18.25 35.5 18.25ZM5.5 16C5.5 11.8644 8.86438 8.5 13 8.5C17.1356 8.5 20.5 11.8644 20.5 16C20.5 16.7651 20.3779 17.519 20.1489 18.25H15.9693C15.9874 18.126 16 18.0009 16 17.875C16 16.4277 14.8223 15.25 13.375 15.25H12.625C12.3221 15.25 12.0391 15.1335 11.8278 14.9222C11.6165 14.7109 11.5 14.4279 11.5 14.125C11.5 13.5046 12.0046 13 12.625 13H15.25C15.6642 13 16 12.6642 16 12.25C16 11.8358 15.6642 11.5 15.25 11.5H13.75V10.75C13.75 10.3358 13.4142 10 13 10C12.5858 10 12.25 10.3358 12.25 10.75V11.5379C10.9813 11.7218 10 12.8061 10 14.125C10 14.8285 10.2725 15.488 10.7672 15.9828C11.262 16.4775 11.9215 16.75 12.625 16.75H13.375C13.9954 16.75 14.5 17.2546 14.5 17.875C14.5 18.0038 14.4748 18.1301 14.4324 18.25H5.8511C5.62213 17.519 5.5 16.7651 5.5 16ZM33.25 26.9764C33.25 27.9293 32.8918 28.8379 32.2415 29.5352L23.3553 39.0559C22.965 39.4741 22.75 40.019 22.75 40.5911V47.2096L15.25 44.7095V40.5911C15.25 40.019 15.035 39.4741 14.6447 39.0563L5.75854 29.5352C5.10815 28.8379 4.75 27.9293 4.75 26.9764V24.25H33.25V26.9764ZM34 22.75H2.5V19.75H35.5L35.5011 22.75H34ZM29.5 16C33.6356 16 37 12.6356 37 8.5C37 4.36438 33.6356 1 29.5 1C25.3644 1 22 4.36438 22 8.5C22 12.6356 25.3644 16 29.5 16ZM29.5 2.5C32.8083 2.5 35.5 5.19165 35.5 8.5C35.5 11.8083 32.8083 14.5 29.5 14.5C26.1917 14.5 23.5 11.8083 23.5 8.5C23.5 5.19165 26.1917 2.5 29.5 2.5ZM30.25 10C30.25 9.58655 29.9135 9.25 29.5 9.25C28.2593 9.25 27.25 8.24072 27.25 7C27.25 6.02354 27.8789 5.19879 28.75 4.8882V4.75C28.75 4.33582 29.0858 4 29.5 4C29.9142 4 30.25 4.33582 30.25 4.75H31C31.4142 4.75 31.75 5.08582 31.75 5.5C31.75 5.91418 31.4142 6.25 31 6.25H29.5C29.0865 6.25 28.75 6.58655 28.75 7C28.75 7.41345 29.0865 7.75 29.5 7.75C30.7407 7.75 31.75 8.75928 31.75 10C31.75 10.9765 31.1211 11.8012 30.25 12.1118V12.25C30.25 12.6642 29.9142 13 29.5 13C29.0858 13 28.75 12.6642 28.75 12.25H28C27.5858 12.25 27.25 11.9142 27.25 11.5C27.25 11.0858 27.5858 10.75 28 10.75H29.5C29.9135 10.75 30.25 10.4135 30.25 10Z"/>
</mask>
<path d="M35.5 18.25H21.7071C21.8968 17.5147 22 16.7624 22 16C22 11.0375 17.9625 7 13 7C8.03748 7 4 11.0375 4 16C4 16.7624 4.10323 17.5147 4.29288 18.25H2.5C1.67273 18.25 1 18.9227 1 19.75V22.75C1 23.5773 1.67273 24.25 2.5 24.25H3.25V26.9764C3.25 28.3105 3.75134 29.5828 4.66211 30.5583L13.5482 40.0798C13.6782 40.219 13.75 40.4006 13.75 40.5911V45.25C13.75 45.573 13.9565 45.8594 14.2627 45.9615L23.2627 48.9615C23.3403 48.9872 23.4202 49 23.5 49C23.6553 49 23.8091 48.9517 23.9384 48.8583C24.1343 48.7173 24.25 48.491 24.25 48.25V40.5911C24.25 40.4006 24.3218 40.219 24.4518 40.0795L33.3379 30.5583C34.2487 29.5828 34.75 28.3105 34.75 26.9764V24.25H35.5C36.3273 24.25 37 23.5773 37 22.75V19.75C37 18.9227 36.3273 18.25 35.5 18.25ZM5.5 16C5.5 11.8644 8.86438 8.5 13 8.5C17.1356 8.5 20.5 11.8644 20.5 16C20.5 16.7651 20.3779 17.519 20.1489 18.25H15.9693C15.9874 18.126 16 18.0009 16 17.875C16 16.4277 14.8223 15.25 13.375 15.25H12.625C12.3221 15.25 12.0391 15.1335 11.8278 14.9222C11.6165 14.7109 11.5 14.4279 11.5 14.125C11.5 13.5046 12.0046 13 12.625 13H15.25C15.6642 13 16 12.6642 16 12.25C16 11.8358 15.6642 11.5 15.25 11.5H13.75V10.75C13.75 10.3358 13.4142 10 13 10C12.5858 10 12.25 10.3358 12.25 10.75V11.5379C10.9813 11.7218 10 12.8061 10 14.125C10 14.8285 10.2725 15.488 10.7672 15.9828C11.262 16.4775 11.9215 16.75 12.625 16.75H13.375C13.9954 16.75 14.5 17.2546 14.5 17.875C14.5 18.0038 14.4748 18.1301 14.4324 18.25H5.8511C5.62213 17.519 5.5 16.7651 5.5 16ZM33.25 26.9764C33.25 27.9293 32.8918 28.8379 32.2415 29.5352L23.3553 39.0559C22.965 39.4741 22.75 40.019 22.75 40.5911V47.2096L15.25 44.7095V40.5911C15.25 40.019 15.035 39.4741 14.6447 39.0563L5.75854 29.5352C5.10815 28.8379 4.75 27.9293 4.75 26.9764V24.25H33.25V26.9764ZM34 22.75H2.5V19.75H35.5L35.5011 22.75H34ZM29.5 16C33.6356 16 37 12.6356 37 8.5C37 4.36438 33.6356 1 29.5 1C25.3644 1 22 4.36438 22 8.5C22 12.6356 25.3644 16 29.5 16ZM29.5 2.5C32.8083 2.5 35.5 5.19165 35.5 8.5C35.5 11.8083 32.8083 14.5 29.5 14.5C26.1917 14.5 23.5 11.8083 23.5 8.5C23.5 5.19165 26.1917 2.5 29.5 2.5ZM30.25 10C30.25 9.58655 29.9135 9.25 29.5 9.25C28.2593 9.25 27.25 8.24072 27.25 7C27.25 6.02354 27.8789 5.19879 28.75 4.8882V4.75C28.75 4.33582 29.0858 4 29.5 4C29.9142 4 30.25 4.33582 30.25 4.75H31C31.4142 4.75 31.75 5.08582 31.75 5.5C31.75 5.91418 31.4142 6.25 31 6.25H29.5C29.0865 6.25 28.75 6.58655 28.75 7C28.75 7.41345 29.0865 7.75 29.5 7.75C30.7407 7.75 31.75 8.75928 31.75 10C31.75 10.9765 31.1211 11.8012 30.25 12.1118V12.25C30.25 12.6642 29.9142 13 29.5 13C29.0858 13 28.75 12.6642 28.75 12.25H28C27.5858 12.25 27.25 11.9142 27.25 11.5C27.25 11.0858 27.5858 10.75 28 10.75H29.5C29.9135 10.75 30.25 10.4135 30.25 10Z" fill="#D45B2C"/>
<path d="M35.5 18.25H21.7071C21.8968 17.5147 22 16.7624 22 16C22 11.0375 17.9625 7 13 7C8.03748 7 4 11.0375 4 16C4 16.7624 4.10323 17.5147 4.29288 18.25H2.5C1.67273 18.25 1 18.9227 1 19.75V22.75C1 23.5773 1.67273 24.25 2.5 24.25H3.25V26.9764C3.25 28.3105 3.75134 29.5828 4.66211 30.5583L13.5482 40.0798C13.6782 40.219 13.75 40.4006 13.75 40.5911V45.25C13.75 45.573 13.9565 45.8594 14.2627 45.9615L23.2627 48.9615C23.3403 48.9872 23.4202 49 23.5 49C23.6553 49 23.8091 48.9517 23.9384 48.8583C24.1343 48.7173 24.25 48.491 24.25 48.25V40.5911C24.25 40.4006 24.3218 40.219 24.4518 40.0795L33.3379 30.5583C34.2487 29.5828 34.75 28.3105 34.75 26.9764V24.25H35.5C36.3273 24.25 37 23.5773 37 22.75V19.75C37 18.9227 36.3273 18.25 35.5 18.25ZM5.5 16C5.5 11.8644 8.86438 8.5 13 8.5C17.1356 8.5 20.5 11.8644 20.5 16C20.5 16.7651 20.3779 17.519 20.1489 18.25H15.9693C15.9874 18.126 16 18.0009 16 17.875C16 16.4277 14.8223 15.25 13.375 15.25H12.625C12.3221 15.25 12.0391 15.1335 11.8278 14.9222C11.6165 14.7109 11.5 14.4279 11.5 14.125C11.5 13.5046 12.0046 13 12.625 13H15.25C15.6642 13 16 12.6642 16 12.25C16 11.8358 15.6642 11.5 15.25 11.5H13.75V10.75C13.75 10.3358 13.4142 10 13 10C12.5858 10 12.25 10.3358 12.25 10.75V11.5379C10.9813 11.7218 10 12.8061 10 14.125C10 14.8285 10.2725 15.488 10.7672 15.9828C11.262 16.4775 11.9215 16.75 12.625 16.75H13.375C13.9954 16.75 14.5 17.2546 14.5 17.875C14.5 18.0038 14.4748 18.1301 14.4324 18.25H5.8511C5.62213 17.519 5.5 16.7651 5.5 16ZM33.25 26.9764C33.25 27.9293 32.8918 28.8379 32.2415 29.5352L23.3553 39.0559C22.965 39.4741 22.75 40.019 22.75 40.5911V47.2096L15.25 44.7095V40.5911C15.25 40.019 15.035 39.4741 14.6447 39.0563L5.75854 29.5352C5.10815 28.8379 4.75 27.9293 4.75 26.9764V24.25H33.25V26.9764ZM34 22.75H2.5V19.75H35.5L35.5011 22.75H34ZM29.5 16C33.6356 16 37 12.6356 37 8.5C37 4.36438 33.6356 1 29.5 1C25.3644 1 22 4.36438 22 8.5C22 12.6356 25.3644 16 29.5 16ZM29.5 2.5C32.8083 2.5 35.5 5.19165 35.5 8.5C35.5 11.8083 32.8083 14.5 29.5 14.5C26.1917 14.5 23.5 11.8083 23.5 8.5C23.5 5.19165 26.1917 2.5 29.5 2.5ZM30.25 10C30.25 9.58655 29.9135 9.25 29.5 9.25C28.2593 9.25 27.25 8.24072 27.25 7C27.25 6.02354 27.8789 5.19879 28.75 4.8882V4.75C28.75 4.33582 29.0858 4 29.5 4C29.9142 4 30.25 4.33582 30.25 4.75H31C31.4142 4.75 31.75 5.08582 31.75 5.5C31.75 5.91418 31.4142 6.25 31 6.25H29.5C29.0865 6.25 28.75 6.58655 28.75 7C28.75 7.41345 29.0865 7.75 29.5 7.75C30.7407 7.75 31.75 8.75928 31.75 10C31.75 10.9765 31.1211 11.8012 30.25 12.1118V12.25C30.25 12.6642 29.9142 13 29.5 13C29.0858 13 28.75 12.6642 28.75 12.25H28C27.5858 12.25 27.25 11.9142 27.25 11.5C27.25 11.0858 27.5858 10.75 28 10.75H29.5C29.9135 10.75 30.25 10.4135 30.25 10Z" stroke="#D45B2C" stroke-width="0.5" mask="url(#path-1-outside-1_370_2828)"/>
</svg>
